<svg width="1409" height="1422" viewBox="0 0 1409 1422" fill="none" xmlns="http://www.w3.org/2000/svg">
<g filter="url(#filter0_d_43_2591)">
<path d="M611.355 320.856H583.844L570.089 300.484L583.844 280.112H611.355L624.718 300.484L611.355 320.856Z" fill="white"/>
<path d="M611.086 280.612L624.119 300.484L611.086 320.355H584.109L570.691 300.483L584.11 280.612H611.086Z" stroke="black" stroke-opacity="0.08"/>
<path d="M559.87 346.659H532.753L518.997 325.948L532.753 305.576H559.87L573.626 325.948L559.87 346.659Z" fill="white"/>
<path d="M559.604 306.076L573.023 325.949L559.603 346.159H533.021L519.599 325.949L533.019 306.076H559.604Z" stroke="black" stroke-opacity="0.08"/>
<path d="M611.355 372.124H583.844L570.089 351.752L583.844 331.041H611.355L624.718 351.752L611.355 372.124Z" fill="white"/>
<path d="M611.083 331.541L624.121 351.749L611.086 371.624H584.109L570.69 351.75L584.112 331.541H611.083Z" stroke="black" stroke-opacity="0.08"/>
<path d="M662.448 346.659H635.33L621.574 325.948L635.33 305.576H662.448L676.203 325.948L662.448 346.659Z" fill="white"/>
<path d="M662.182 306.076L675.602 325.949L662.18 346.159H635.598L622.176 325.949L635.596 306.076H662.182Z" stroke="black" stroke-opacity="0.08"/>
<path d="M662.448 295.392H635.33L621.574 275.02L635.33 254.309H662.448L676.203 275.02L662.448 295.392Z" fill="white"/>
<path d="M662.18 254.809L675.602 275.018L662.183 294.892H635.595L622.176 275.018L635.598 254.809H662.18Z" stroke="black" stroke-opacity="0.08"/>
<path d="M611.355 269.925H583.844L570.089 249.214L583.844 228.842H611.355L624.718 249.214L611.355 269.925Z" fill="white"/>
<path d="M611.086 229.342L624.121 249.216L611.084 269.425H584.112L570.69 249.215L584.11 229.342H611.086Z" stroke="black" stroke-opacity="0.08"/>
<path d="M559.87 295.392H532.753L518.997 275.02L532.753 254.309H559.87L573.626 275.02L559.87 295.392Z" fill="white"/>
<path d="M559.603 254.809L573.023 275.018L559.605 294.892H533.018L519.599 275.018L533.021 254.809H559.603Z" stroke="black" stroke-opacity="0.08"/>
<path d="M508.778 372.124H481.267L467.512 351.752L481.267 331.041H508.778L522.141 351.752L508.778 372.124Z" fill="white"/>
<path d="M508.506 331.541L521.544 351.749L508.509 371.624H481.532L468.113 351.75L481.535 331.541H508.506Z" stroke="black" stroke-opacity="0.08"/>
<path d="M559.87 397.59H532.753L518.997 377.218L532.753 356.847H559.87L573.626 377.218L559.87 397.59Z" fill="white"/>
<path d="M559.604 357.347L573.022 377.218L559.605 397.09H533.018L519.6 377.218L533.019 357.347H559.604Z" stroke="black" stroke-opacity="0.08"/>
<path d="M611.355 423.394H583.844L570.089 402.682L583.844 382.311H611.355L624.718 402.682L611.355 423.394Z" fill="white"/>
<path d="M611.086 382.811L624.121 402.685L611.084 422.894H584.112L570.69 402.684L584.11 382.811H611.086Z" stroke="black" stroke-opacity="0.08"/>
<path d="M662.448 397.59H635.33L621.574 377.218L635.33 356.847H662.448L676.203 377.218L662.448 397.59Z" fill="white"/>
<path d="M662.182 357.347L675.6 377.218L662.183 397.09H635.595L622.177 377.218L635.596 357.347H662.182Z" stroke="black" stroke-opacity="0.08"/>
<path d="M713.933 372.124H686.422L672.666 351.752L686.422 331.041H713.933L727.688 351.752L713.933 372.124Z" fill="white"/>
<path d="M713.664 331.541L727.086 351.75L713.668 371.624H686.687L673.268 351.75L686.689 331.541H713.664Z" stroke="black" stroke-opacity="0.08"/>
<path d="M713.933 320.856H686.422L672.666 300.484L686.422 280.112H713.933L727.688 300.484L713.933 320.856Z" fill="white"/>
<path d="M713.667 280.612L727.084 300.483L713.668 320.355H686.687L673.269 300.483L686.688 280.612H713.667Z" stroke="black" stroke-opacity="0.08"/>
<path d="M713.933 269.925H686.422L672.666 249.214L686.422 228.842H713.933L727.688 249.214L713.933 269.925Z" fill="white"/>
<path d="M713.667 229.342L727.086 249.215L713.664 269.425H686.689L673.268 249.215L686.688 229.342H713.667Z" stroke="black" stroke-opacity="0.08"/>
<path d="M662.448 244.121H635.33L621.574 223.749L635.33 203.377H662.448L676.203 223.749L662.448 244.121Z" fill="white"/>
<path d="M662.182 203.877L675.6 223.748L662.183 243.62H635.595L622.177 223.748L635.596 203.877H662.182Z" stroke="black" stroke-opacity="0.08"/>
<path d="M611.355 218.657H583.844L570.089 198.286L583.844 177.574H611.355L624.718 198.286L611.355 218.657Z" fill="white"/>
<path d="M611.083 178.074L624.121 198.283L611.086 218.157H584.109L570.69 198.283L584.112 178.074H611.083Z" stroke="black" stroke-opacity="0.08"/>
<path d="M559.87 244.121H532.753L518.997 223.749L532.753 203.377H559.87L573.626 223.749L559.87 244.121Z" fill="white"/>
<path d="M559.604 203.877L573.022 223.748L559.605 243.62H533.018L519.6 223.748L533.019 203.877H559.604Z" stroke="black" stroke-opacity="0.08"/>
<path d="M508.778 269.925H481.267L467.512 249.214L481.267 228.842H508.778L522.141 249.214L508.778 269.925Z" fill="white"/>
<path d="M508.509 229.342L521.544 249.216L508.507 269.425H481.535L468.113 249.215L481.533 229.342H508.509Z" stroke="black" stroke-opacity="0.08"/>
<path d="M508.778 320.856H481.267L467.512 300.484L481.267 280.112H508.778L522.141 300.484L508.778 320.856Z" fill="white"/>
<path d="M508.509 280.612L521.542 300.484L508.509 320.355H481.532L468.114 300.483L481.533 280.612H508.509Z" stroke="black" stroke-opacity="0.08"/>
<path d="M457.294 397.59H430.175L416.42 377.218L430.175 356.847H457.294L471.049 377.218L457.294 397.59Z" fill="white"/>
<path d="M457.027 357.347L470.445 377.218L457.028 397.09H430.44L417.022 377.218L430.441 357.347H457.027Z" stroke="black" stroke-opacity="0.08"/>
<path d="M508.778 423.394H481.267L467.512 402.682L481.267 382.311H508.778L522.141 402.682L508.778 423.394Z" fill="white"/>
<path d="M508.509 382.811L521.544 402.685L508.507 422.894H481.535L468.113 402.684L481.533 382.811H508.509Z" stroke="black" stroke-opacity="0.08"/>
<path d="M559.87 448.858H532.753L518.997 428.486L532.753 408.114H559.87L573.626 428.486L559.87 448.858Z" fill="white"/>
<path d="M559.604 408.614L573.022 428.485L559.605 448.357H533.018L519.6 428.485L533.019 408.614H559.604Z" stroke="black" stroke-opacity="0.08"/>
<path d="M611.355 474.323H583.844L570.089 453.951L583.844 433.579H611.355L624.718 453.951L611.355 474.323Z" fill="white"/>
<path d="M611.086 434.079L624.119 453.951L611.086 473.822H584.109L570.691 453.95L584.11 434.079H611.086Z" stroke="black" stroke-opacity="0.08"/>
<path d="M662.448 448.858H635.33L621.574 428.486L635.33 408.114H662.448L676.203 428.486L662.448 448.858Z" fill="white"/>
<path d="M662.182 408.614L675.6 428.485L662.183 448.357H635.595L622.177 428.485L635.596 408.614H662.182Z" stroke="black" stroke-opacity="0.08"/>
<path d="M713.933 423.394H686.422L672.666 402.682L686.422 382.311H713.933L727.688 402.682L713.933 423.394Z" fill="white"/>
<path d="M713.667 382.811L727.086 402.684L713.664 422.894H686.689L673.268 402.684L686.688 382.811H713.667Z" stroke="black" stroke-opacity="0.08"/>
<path d="M765.024 397.59H737.906L724.15 377.218L737.906 356.847H765.024L778.779 377.218L765.024 397.59Z" fill="white"/>
<path d="M764.758 357.347L778.176 377.218L764.759 397.09H738.171L724.753 377.218L738.172 357.347H764.758Z" stroke="black" stroke-opacity="0.08"/>
<path d="M765.024 346.659H737.906L724.15 325.948L737.906 305.576H765.024L778.779 325.948L765.024 346.659Z" fill="white"/>
<path d="M764.758 306.076L778.177 325.949L764.756 346.159H738.174L724.752 325.949L738.172 306.076H764.758Z" stroke="black" stroke-opacity="0.08"/>
<path d="M765.024 295.392H737.906L724.15 275.02L737.906 254.309H765.024L778.779 275.02L765.024 295.392Z" fill="#014C8F"/>
<path d="M764.756 254.809L778.177 275.018L764.759 294.892H738.171L724.752 275.018L738.174 254.809H764.756Z" stroke="black" stroke-opacity="0.08"/>
<path d="M765.024 244.121H737.906L724.15 223.749L737.906 203.377H765.024L778.779 223.749L765.024 244.121Z" fill="white"/>
<path d="M764.758 203.877L778.176 223.748L764.759 243.62H738.171L724.753 223.748L738.172 203.877H764.758Z" stroke="black" stroke-opacity="0.08"/>
<path d="M713.933 218.657H686.422L672.666 198.286L686.422 177.574H713.933L727.688 198.286L713.933 218.657Z" fill="white"/>
<path d="M713.664 178.074L727.086 198.283L713.668 218.157H686.687L673.268 198.283L686.689 178.074H713.664Z" stroke="black" stroke-opacity="0.08"/>
<path d="M662.448 193.194H635.33L621.574 172.482L635.33 152.11H662.448L676.203 172.482L662.448 193.194Z" fill="white"/>
<path d="M662.182 152.61L675.602 172.483L662.18 192.693H635.598L622.176 172.483L635.596 152.61H662.182Z" stroke="black" stroke-opacity="0.08"/>
<path d="M611.355 167.386H583.844L570.089 147.014L583.844 126.643H611.355L624.718 147.014L611.355 167.386Z" fill="white"/>
<path d="M611.086 127.143L624.119 147.015L611.086 166.886H584.109L570.691 147.014L584.11 127.143H611.086Z" stroke="black" stroke-opacity="0.08"/>
<path d="M559.87 193.194H532.753L518.997 172.482L532.753 152.11H559.87L573.626 172.482L559.87 193.194Z" fill="white"/>
<path d="M559.604 152.61L573.023 172.483L559.603 192.693H533.021L519.599 172.483L533.019 152.61H559.604Z" stroke="black" stroke-opacity="0.08"/>
<path d="M508.778 218.657H481.267L467.512 198.286L481.267 177.574H508.778L522.141 198.286L508.778 218.657Z" fill="white"/>
<path d="M508.506 178.074L521.544 198.283L508.509 218.157H481.532L468.113 198.283L481.535 178.074H508.506Z" stroke="black" stroke-opacity="0.08"/>
<path d="M457.294 244.121H430.175L416.42 223.749L430.175 203.377H457.294L471.049 223.749L457.294 244.121Z" fill="white"/>
<path d="M457.027 203.877L470.445 223.748L457.028 243.62H430.44L417.022 223.748L430.441 203.877H457.027Z" stroke="black" stroke-opacity="0.08"/>
<path d="M457.294 295.392H430.175L416.42 275.02L430.175 254.309H457.294L471.049 275.02L457.294 295.392Z" fill="white"/>
<path d="M457.025 254.809L470.447 275.018L457.028 294.892H430.44L417.021 275.018L430.443 254.809H457.025Z" stroke="black" stroke-opacity="0.08"/>
<path d="M457.294 346.659H430.175L416.42 325.948L430.175 305.576H457.294L471.049 325.948L457.294 346.659Z" fill="white"/>
<path d="M457.027 306.076L470.447 325.949L457.025 346.159H430.443L417.021 325.949L430.441 306.076H457.027Z" stroke="black" stroke-opacity="0.08"/>
<path d="M406.202 423.394H378.691L364.936 402.682L378.691 382.311H406.202L419.565 402.682L406.202 423.394Z" fill="white"/>
<path d="M405.933 382.811L418.968 402.685L405.931 422.894H378.959L365.537 402.684L378.957 382.811H405.933Z" stroke="black" stroke-opacity="0.08"/>
<path d="M457.294 448.858H430.175L416.42 428.486L430.175 408.114H457.294L471.049 428.486L457.294 448.858Z" fill="white"/>
<path d="M457.027 408.614L470.445 428.485L457.028 448.357H430.44L417.022 428.485L430.441 408.614H457.027Z" stroke="black" stroke-opacity="0.08"/>
<path d="M508.778 474.323H481.267L467.512 453.951L481.267 433.579H508.778L522.141 453.951L508.778 474.323Z" fill="white"/>
<path d="M508.509 434.079L521.542 453.951L508.509 473.822H481.532L468.114 453.95L481.533 434.079H508.509Z" stroke="black" stroke-opacity="0.08"/>
<path d="M559.87 500.129H532.753L518.997 479.757L532.753 459.046H559.87L573.626 479.757L559.87 500.129Z" fill="#9747FF"/>
<path d="M559.603 459.546L573.023 479.755L559.605 499.629H533.018L519.599 479.755L533.021 459.546H559.603Z" stroke="black" stroke-opacity="0.08"/>
<path d="M611.355 525.592H583.844L570.089 505.22L583.844 484.849H611.355L624.718 505.22L611.355 525.592Z" fill="white"/>
<path d="M611.086 485.349L624.119 505.221L611.086 525.092H584.109L570.691 505.22L584.11 485.349H611.086Z" stroke="black" stroke-opacity="0.08"/>
<path d="M662.448 500.129H635.33L621.574 479.757L635.33 459.046H662.448L676.203 479.757L662.448 500.129Z" fill="white"/>
<path d="M662.18 459.546L675.602 479.755L662.183 499.629H635.595L622.176 479.755L635.598 459.546H662.18Z" stroke="black" stroke-opacity="0.08"/>
<path d="M713.933 474.323H686.422L672.666 453.951L686.422 433.579H713.933L727.688 453.951L713.933 474.323Z" fill="white"/>
<path d="M713.667 434.079L727.084 453.95L713.668 473.822H686.687L673.269 453.95L686.688 434.079H713.667Z" stroke="black" stroke-opacity="0.08"/>
<path d="M765.024 448.858H737.906L724.15 428.486L737.906 408.114H765.024L778.779 428.486L765.024 448.858Z" fill="#9747FF"/>
<path d="M764.758 408.614L778.176 428.485L764.759 448.357H738.171L724.753 428.485L738.172 408.614H764.758Z" stroke="black" stroke-opacity="0.08"/>
<path d="M816.509 423.394H788.998L775.242 402.682L788.998 382.311H816.509L830.264 402.682L816.509 423.394Z" fill="white"/>
<path d="M816.243 382.811L829.662 402.684L816.24 422.894H789.266L775.844 402.684L789.264 382.811H816.243Z" stroke="black" stroke-opacity="0.08"/>
<path d="M816.509 372.124H788.998L775.242 351.752L788.998 331.041H816.509L830.264 351.752L816.509 372.124Z" fill="white"/>
<path d="M816.24 331.541L829.662 351.75L816.244 371.624H789.263L775.844 351.75L789.266 331.541H816.24Z" stroke="black" stroke-opacity="0.08"/>
<path d="M816.509 320.856H788.998L775.242 300.484L788.998 280.112H816.509L830.264 300.484L816.509 320.856Z" fill="white"/>
<path d="M816.243 280.612L829.66 300.483L816.244 320.355H789.263L775.845 300.483L789.264 280.612H816.243Z" stroke="black" stroke-opacity="0.08"/>
<path d="M816.509 269.925H788.998L775.242 249.214L788.998 228.842H816.509L830.264 249.214L816.509 269.925Z" fill="white"/>
<path d="M816.243 229.342L829.662 249.215L816.24 269.425H789.266L775.844 249.215L789.264 229.342H816.243Z" stroke="black" stroke-opacity="0.08"/>
<path d="M816.509 218.657H788.998L775.242 198.286L788.998 177.574H816.509L830.264 198.286L816.509 218.657Z" fill="white"/>
<path d="M816.24 178.074L829.662 198.283L816.244 218.157H789.263L775.844 198.283L789.266 178.074H816.24Z" stroke="black" stroke-opacity="0.08"/>
<path d="M765.024 193.194H737.906L724.15 172.482L737.906 152.11H765.024L778.779 172.482L765.024 193.194Z" fill="white"/>
<path d="M764.758 152.61L778.177 172.483L764.756 192.693H738.174L724.752 172.483L738.172 152.61H764.758Z" stroke="black" stroke-opacity="0.08"/>
<path d="M713.932 167.386H686.421L673.059 147.014L686.421 126.643H713.932L727.295 147.014L713.932 167.386Z" fill="white"/>
<path d="M713.662 127.143L726.695 147.015L713.662 166.886H686.69L673.656 147.015L686.69 127.143H713.662Z" stroke="black" stroke-opacity="0.08"/>
<path d="M662.447 141.583H635.329L621.967 121.551L635.329 101.179H662.447L675.81 121.551L662.447 141.583Z" fill="white"/>
<path d="M662.178 101.679L675.21 121.548L662.18 141.083H635.597L622.565 121.548L635.599 101.679H662.178Z" stroke="black" stroke-opacity="0.08"/>
<path d="M611.355 116.12H583.844L570.089 95.7478L583.844 75.376H611.355L624.718 95.7478L611.355 116.12Z" fill="white"/>
<path d="M611.086 75.876L624.119 95.748L611.086 115.619H584.109L570.691 95.7471L584.11 75.876H611.086Z" stroke="black" stroke-opacity="0.08"/>
<path d="M559.87 141.923H532.753L518.997 121.551L532.753 100.84H559.87L573.626 121.551L559.87 141.923Z" fill="white"/>
<path d="M559.603 101.34L573.023 121.549L559.605 141.423H533.018L519.599 121.549L533.021 101.34H559.603Z" stroke="black" stroke-opacity="0.08"/>
<path d="M508.778 167.386H481.267L467.512 147.014L481.267 126.643H508.778L522.141 147.014L508.778 167.386Z" fill="white"/>
<path d="M508.509 127.143L521.542 147.015L508.509 166.886H481.532L468.114 147.014L481.533 127.143H508.509Z" stroke="black" stroke-opacity="0.08"/>
<path d="M457.294 193.194H430.175L416.42 172.482L430.175 152.11H457.294L471.049 172.482L457.294 193.194Z" fill="white"/>
<path d="M457.027 152.61L470.447 172.483L457.025 192.693H430.443L417.021 172.483L430.441 152.61H457.027Z" stroke="black" stroke-opacity="0.08"/>
<path d="M406.202 218.657H378.691L364.936 198.286L378.691 177.574H406.202L419.565 198.286L406.202 218.657Z" fill="white"/>
<path d="M405.93 178.074L418.968 198.283L405.933 218.157H378.956L365.537 198.283L378.959 178.074H405.93Z" stroke="black" stroke-opacity="0.08"/>
<path d="M406.202 269.925H378.691L364.936 249.214L378.691 228.842H406.202L419.565 249.214L406.202 269.925Z" fill="white"/>
<path d="M405.933 229.342L418.968 249.216L405.931 269.425H378.959L365.537 249.215L378.957 229.342H405.933Z" stroke="black" stroke-opacity="0.08"/>
<path d="M406.202 320.856H378.691L364.936 300.484L378.691 280.112H406.202L419.565 300.484L406.202 320.856Z" fill="white"/>
<path d="M405.933 280.612L418.966 300.484L405.933 320.355H378.956L365.538 300.483L378.957 280.612H405.933Z" stroke="black" stroke-opacity="0.08"/>
<path d="M406.202 372.124H378.691L364.936 351.752L378.691 331.041H406.202L419.565 351.752L406.202 372.124Z" fill="white"/>
<path d="M405.93 331.541L418.968 351.749L405.933 371.624H378.956L365.537 351.75L378.959 331.541H405.93Z" stroke="black" stroke-opacity="0.08"/>
<path d="M354.717 448.858H327.206L313.844 428.486L327.206 408.114H354.717L368.473 428.486L354.717 448.858Z" fill="white"/>
<path d="M354.451 408.614L367.869 428.485L354.452 448.357H327.476L314.441 428.486L327.476 408.614H354.451Z" stroke="black" stroke-opacity="0.08"/>
<path d="M406.202 474.323H378.691L364.936 453.951L378.691 433.579H406.202L419.565 453.951L406.202 474.323Z" fill="white"/>
<path d="M405.933 434.079L418.966 453.951L405.933 473.822H378.956L365.538 453.95L378.957 434.079H405.933Z" stroke="black" stroke-opacity="0.08"/>
<path d="M457.294 500.129H430.175L416.42 479.757L430.175 459.046H457.294L471.049 479.757L457.294 500.129Z" fill="white"/>
<path d="M457.025 459.546L470.447 479.755L457.028 499.629H430.44L417.021 479.755L430.443 459.546H457.025Z" stroke="black" stroke-opacity="0.08"/>
<path d="M508.778 525.592H481.267L467.512 505.22L481.267 484.849H508.778L522.141 505.22L508.778 525.592Z" fill="white"/>
<path d="M508.509 485.349L521.542 505.221L508.509 525.092H481.532L468.114 505.22L481.533 485.349H508.509Z" stroke="black" stroke-opacity="0.08"/>
<path d="M559.87 551.396H532.753L518.997 530.684L532.753 510.312H559.87L573.626 530.684L559.87 551.396Z" fill="white"/>
<path d="M559.604 510.812L573.023 530.686L559.603 550.896H533.021L519.599 530.686L533.019 510.812H559.604Z" stroke="black" stroke-opacity="0.08"/>
<path d="M611.355 576.86H583.844L570.089 556.488L583.844 535.776H611.355L624.718 556.488L611.355 576.86Z" fill="white"/>
<path d="M611.083 536.276L624.121 556.485L611.086 576.359H584.109L570.69 556.485L584.112 536.276H611.083Z" stroke="black" stroke-opacity="0.08"/>
<path d="M662.448 551.396H635.33L621.574 530.684L635.33 510.312H662.448L676.203 530.684L662.448 551.396Z" fill="white"/>
<path d="M662.182 510.812L675.602 530.686L662.18 550.896H635.598L622.176 530.686L635.596 510.812H662.182Z" stroke="black" stroke-opacity="0.08"/>
<path d="M713.933 525.592H686.422L672.666 505.22L686.422 484.849H713.933L727.688 505.22L713.933 525.592Z" fill="white"/>
<path d="M713.667 485.349L727.084 505.22L713.668 525.092H686.687L673.269 505.22L686.688 485.349H713.667Z" stroke="black" stroke-opacity="0.08"/>
<path d="M765.024 500.129H737.906L724.15 479.757L737.906 459.046H765.024L778.779 479.757L765.024 500.129Z" fill="white"/>
<path d="M764.756 459.546L778.177 479.755L764.759 499.629H738.171L724.752 479.755L738.174 459.546H764.756Z" stroke="black" stroke-opacity="0.08"/>
<path d="M816.509 474.323H788.998L775.242 453.951L788.998 433.579H816.509L830.264 453.951L816.509 474.323Z" fill="white"/>
<path d="M816.243 434.079L829.66 453.95L816.244 473.822H789.263L775.845 453.95L789.264 434.079H816.243Z" stroke="black" stroke-opacity="0.08"/>
<path d="M867.601 448.858H840.483L826.728 428.486L840.483 408.114H867.601L881.357 428.486L867.601 448.858Z" fill="white"/>
<path d="M867.335 408.614L880.753 428.485L867.336 448.357H840.748L827.33 428.485L840.749 408.614H867.335Z" stroke="black" stroke-opacity="0.08"/>
<path d="M867.601 397.59H840.483L826.728 377.218L840.483 356.847H867.601L881.357 377.218L867.601 397.59Z" fill="white"/>
<path d="M867.335 357.347L880.753 377.218L867.336 397.09H840.748L827.33 377.218L840.749 357.347H867.335Z" stroke="black" stroke-opacity="0.08"/>
<path d="M867.601 346.659H840.483L826.728 325.948L840.483 305.576H867.601L881.357 325.948L867.601 346.659Z" fill="white"/>
<path d="M867.335 306.076L880.755 325.949L867.333 346.159H840.751L827.329 325.949L840.749 306.076H867.335Z" stroke="black" stroke-opacity="0.08"/>
<path d="M867.601 295.392H840.483L826.728 275.02L840.483 254.309H867.601L881.357 275.02L867.601 295.392Z" fill="white"/>
<path d="M867.333 254.809L880.755 275.018L867.336 294.892H840.748L827.329 275.018L840.751 254.809H867.333Z" stroke="black" stroke-opacity="0.08"/>
<path d="M867.601 244.121H840.483L826.728 223.749L840.483 203.377H867.601L881.357 223.749L867.601 244.121Z" fill="white"/>
<path d="M867.335 203.877L880.753 223.748L867.336 243.62H840.748L827.33 223.748L840.749 203.877H867.335Z" stroke="black" stroke-opacity="0.08"/>
<path d="M867.601 193.194H840.483L826.728 172.482L840.483 152.11H867.601L881.357 172.482L867.601 193.194Z" fill="white"/>
<path d="M867.335 152.61L880.755 172.483L867.333 192.693H840.751L827.329 172.483L840.749 152.61H867.335Z" stroke="black" stroke-opacity="0.08"/>
<path d="M814.937 165.689H790.177L777.993 147.015L790.177 128.341H814.937L827.513 147.015L814.937 165.689Z" fill="white"/>
<path d="M814.67 128.841L826.91 147.015L814.67 165.189H790.448L778.59 147.015L790.448 128.841H814.67Z" stroke="black" stroke-opacity="0.08"/>
<path d="M652.622 76.0538H645.155L641.225 70.2817L645.155 64.5098H652.622L656.552 70.2817L652.622 76.0538Z" fill="white"/>
<path d="M652.357 65.0098L655.946 70.2812L652.357 75.5537H645.419L641.829 70.2812L645.419 65.0098H652.357Z" stroke="black" stroke-opacity="0.08"/>
<path d="M605.853 57.3808H588.953L580.7 44.8181L588.953 31.916H605.853L614.499 44.8181L605.853 57.3808Z" fill="white"/>
<path d="M605.586 32.416L613.895 44.8145L605.591 56.8809H589.223L581.296 44.8145L589.228 32.416H605.586Z" stroke="black" stroke-opacity="0.08"/>
<path d="M559.478 89.9744H533.146L519.783 70.2816L533.146 50.5889H559.478L572.447 70.2816L559.478 89.9744Z" fill="white"/>
<path d="M559.207 51.0889L571.848 70.2812L559.207 89.4746H533.411L520.388 70.2812L533.41 51.0889H559.207Z" stroke="black" stroke-opacity="0.08"/>
<path d="M508.778 116.12H481.267L467.512 95.7478L481.267 75.376H508.778L522.141 95.7478L508.778 116.12Z" fill="white"/>
<path d="M508.509 75.876L521.542 95.748L508.509 115.619H481.532L468.114 95.7471L481.533 75.876H508.509Z" stroke="black" stroke-opacity="0.08"/>
<path d="M457.294 141.923H430.175L416.42 121.551L430.175 100.84H457.294L471.049 121.551L457.294 141.923Z" fill="white"/>
<path d="M457.025 101.34L470.447 121.549L457.028 141.423H430.44L417.021 121.549L430.443 101.34H457.025Z" stroke="black" stroke-opacity="0.08"/>
<path d="M406.202 167.386H378.691L364.936 147.014L378.691 126.643H406.202L419.565 147.014L406.202 167.386Z" fill="white"/>
<path d="M405.933 127.143L418.966 147.015L405.933 166.886H378.956L365.538 147.014L378.957 127.143H405.933Z" stroke="black" stroke-opacity="0.08"/>
<path d="M354.717 193.194H327.206L313.844 172.482L327.206 152.11H354.717L368.473 172.482L354.717 193.194Z" fill="white"/>
<path d="M354.451 152.61L367.871 172.483L354.449 192.693H327.479L314.439 172.484L327.476 152.61H354.451Z" stroke="black" stroke-opacity="0.08"/>
<path d="M354.717 244.121H327.206L313.844 223.749L327.206 203.377H354.717L368.473 223.749L354.717 244.121Z" fill="white"/>
<path d="M354.451 203.877L367.869 223.748L354.452 243.62H327.476L314.441 223.749L327.476 203.877H354.451Z" stroke="black" stroke-opacity="0.08"/>
<path d="M354.717 295.392H327.206L313.844 275.02L327.206 254.309H354.717L368.473 275.02L354.717 295.392Z" fill="white"/>
<path d="M354.449 254.809L367.871 275.018L354.452 294.892H327.476L314.439 275.018L327.479 254.809H354.449Z" stroke="black" stroke-opacity="0.08"/>
<path d="M354.717 346.659H327.206L313.844 325.948L327.206 305.576H354.717L368.473 325.948L354.717 346.659Z" fill="white"/>
<path d="M354.451 306.076L367.871 325.949L354.449 346.159H327.479L314.439 325.95L327.476 306.076H354.451Z" stroke="black" stroke-opacity="0.08"/>
<path d="M354.717 397.59H327.206L313.844 377.218L327.206 356.847H354.717L368.473 377.218L354.717 397.59Z" fill="white"/>
<path d="M354.451 357.347L367.869 377.218L354.452 397.09H327.476L314.441 377.219L327.476 357.347H354.451Z" stroke="black" stroke-opacity="0.08"/>
<path d="M303.625 474.323H276.114L262.358 453.951L276.114 433.579H303.625L316.987 453.951L303.625 474.323Z" fill="white"/>
<path d="M303.355 434.079L316.389 453.951L303.355 473.822H276.379L262.961 453.95L276.38 434.079H303.355Z" stroke="black" stroke-opacity="0.08"/>
<path d="M354.717 500.129H327.206L313.844 479.757L327.206 459.046H354.717L368.473 479.757L354.717 500.129Z" fill="white"/>
<path d="M354.449 459.546L367.871 479.755L354.452 499.629H327.476L314.439 479.755L327.479 459.546H354.449Z" stroke="black" stroke-opacity="0.08"/>
<path d="M406.202 525.592H378.691L364.936 505.22L378.691 484.849H406.202L419.565 505.22L406.202 525.592Z" fill="#014C8F"/>
<path d="M405.933 485.349L418.966 505.221L405.933 525.092H378.956L365.538 505.22L378.957 485.349H405.933Z" stroke="black" stroke-opacity="0.08"/>
<path d="M457.294 551.396H430.175L416.42 530.684L430.175 510.312H457.294L471.049 530.684L457.294 551.396Z" fill="white"/>
<path d="M457.027 510.812L470.447 530.686L457.025 550.896H430.443L417.021 530.686L430.441 510.812H457.027Z" stroke="black" stroke-opacity="0.08"/>
<path d="M508.778 576.86H481.267L467.512 556.488L481.267 535.776H508.778L522.141 556.488L508.778 576.86Z" fill="white"/>
<path d="M508.506 536.276L521.544 556.485L508.509 576.359H481.532L468.113 556.485L481.535 536.276H508.506Z" stroke="black" stroke-opacity="0.08"/>
<path d="M559.87 602.327H532.753L518.997 581.955L532.753 561.583H559.87L573.626 581.955L559.87 602.327Z" fill="#014C8F"/>
<path d="M559.604 562.083L573.022 581.954L559.605 601.826H533.018L519.6 581.954L533.019 562.083H559.604Z" stroke="black" stroke-opacity="0.08"/>
<path d="M603.888 616.925H591.312L585.023 607.418L591.312 597.911H603.888L610.176 607.418L603.888 616.925Z" fill="white"/>
<path d="M603.619 598.411L609.577 607.418L603.619 616.425H591.58L585.622 607.418L591.58 598.411H603.619Z" stroke="black" stroke-opacity="0.08"/>
<path d="M662.448 602.327H635.33L621.574 581.955L635.33 561.583H662.448L676.203 581.955L662.448 602.327Z" fill="white"/>
<path d="M662.182 562.083L675.6 581.954L662.183 601.826H635.595L622.177 581.954L635.596 562.083H662.182Z" stroke="black" stroke-opacity="0.08"/>
<path d="M713.933 576.86H686.422L672.666 556.488L686.422 535.776H713.933L727.688 556.488L713.933 576.86Z" fill="white"/>
<path d="M713.664 536.276L727.086 556.485L713.668 576.359H686.687L673.268 556.485L686.689 536.276H713.664Z" stroke="black" stroke-opacity="0.08"/>
<path d="M765.024 551.396H737.906L724.15 530.684L737.906 510.312H765.024L778.779 530.684L765.024 551.396Z" fill="white"/>
<path d="M764.758 510.812L778.177 530.686L764.756 550.896H738.174L724.752 530.686L738.172 510.812H764.758Z" stroke="black" stroke-opacity="0.08"/>
<path d="M816.509 525.592H788.998L775.242 505.22L788.998 484.849H816.509L830.264 505.22L816.509 525.592Z" fill="white"/>
<path d="M816.243 485.349L829.66 505.22L816.244 525.092H789.263L775.845 505.22L789.264 485.349H816.243Z" stroke="black" stroke-opacity="0.08"/>
<path d="M867.601 500.129H840.483L826.728 479.757L840.483 459.046H867.601L881.357 479.757L867.601 500.129Z" fill="white"/>
<path d="M867.333 459.546L880.755 479.755L867.336 499.629H840.748L827.329 479.755L840.751 459.546H867.333Z" stroke="black" stroke-opacity="0.08"/>
<path d="M919.086 474.323H891.575L877.819 453.951L891.575 433.579H919.086L932.841 453.951L919.086 474.323Z" fill="white"/>
<path d="M918.82 434.079L932.237 453.95L918.821 473.822H891.84L878.422 453.95L891.841 434.079H918.82Z" stroke="black" stroke-opacity="0.08"/>
<path d="M919.086 423.394H891.575L877.819 402.682L891.575 382.311H919.086L932.841 402.682L919.086 423.394Z" fill="white"/>
<path d="M918.82 382.811L932.239 402.684L918.817 422.894H891.843L878.421 402.684L891.841 382.811H918.82Z" stroke="black" stroke-opacity="0.08"/>
<path d="M919.086 372.124H891.575L877.819 351.752L891.575 331.041H919.086L932.841 351.752L919.086 372.124Z" fill="white"/>
<path d="M918.817 331.541L932.239 351.75L918.821 371.624H891.84L878.421 351.75L891.843 331.541H918.817Z" stroke="black" stroke-opacity="0.08"/>
<path d="M919.086 320.856H891.575L877.819 300.484L891.575 280.112H919.086L932.841 300.484L919.086 320.856Z" fill="white"/>
<path d="M918.82 280.612L932.237 300.483L918.821 320.355H891.84L878.422 300.483L891.841 280.612H918.82Z" stroke="black" stroke-opacity="0.08"/>
<path d="M919.086 269.925H891.575L877.819 249.214L891.575 228.842H919.086L932.841 249.214L919.086 269.925Z" fill="white"/>
<path d="M918.82 229.342L932.239 249.215L918.817 269.425H891.843L878.421 249.215L891.841 229.342H918.82Z" stroke="black" stroke-opacity="0.08"/>
<path d="M919.086 218.657H891.575L877.819 198.286L891.575 177.574H919.086L932.841 198.286L919.086 218.657Z" fill="white"/>
<path d="M918.817 178.074L932.239 198.283L918.821 218.157H891.84L878.421 198.283L891.843 178.074H918.817Z" stroke="black" stroke-opacity="0.08"/>
<path d="M918.3 166.37H892.361L879.392 147.017L892.361 127.324H918.3L931.269 147.017L918.3 166.37Z" fill="white"/>
<path d="M918.029 127.824L930.668 147.014L918.033 165.87H892.628L879.991 147.015L892.631 127.824H918.029Z" stroke="black" stroke-opacity="0.08"/>
<path d="M860.134 130.72H847.95L841.662 121.553L847.95 112.046H860.134L866.422 121.553L860.134 130.72Z" fill="white"/>
<path d="M859.865 112.546L865.818 121.547L859.871 130.22H848.214L842.265 121.547L848.219 112.546H859.865Z" stroke="black" stroke-opacity="0.08"/>
<path d="M703.714 50.2494H696.64L692.71 44.8169L696.64 39.0449H703.714L707.251 44.8169L703.714 50.2494Z" fill="white"/>
<path d="M703.435 39.5449L706.659 44.8076L703.443 49.749H696.896L693.32 44.8076L696.904 39.5449H703.435Z" stroke="black" stroke-opacity="0.08"/>
<path d="M454.936 86.9204H432.534L421.529 70.2834L432.534 53.6465H454.936L465.94 70.2834L454.936 86.9204Z" fill="white"/>
<path d="M454.667 54.1465L465.34 70.2832L454.667 86.4199H432.802L422.128 70.2832L432.802 54.1465H454.667Z" stroke="black" stroke-opacity="0.08"/>
<path d="M405.809 116.119H378.691L365.328 95.7471L378.691 75.7148H405.809L419.564 95.7471L405.809 116.119Z" fill="white"/>
<path d="M405.545 76.2148L418.959 95.749L405.543 115.619H378.96L365.927 95.749L378.958 76.2148H405.545Z" stroke="black" stroke-opacity="0.08"/>
<path d="M354.717 141.923H327.206L313.844 121.551L327.206 100.84H354.717L368.473 121.551L354.717 141.923Z" fill="white"/>
<path d="M354.449 101.34L367.871 121.549L354.452 141.423H327.476L314.439 121.549L327.479 101.34H354.449Z" stroke="black" stroke-opacity="0.08"/>
<path d="M298.123 159.238H281.616L273.363 147.015L281.616 134.792H298.123L305.983 147.015L298.123 159.238Z" fill="white"/>
<path d="M297.85 135.292L305.389 147.015L297.85 158.738H281.883L273.966 147.015L281.883 135.292H297.85Z" stroke="black" stroke-opacity="0.08"/>
<path d="M303.232 217.977H276.507L263.145 198.284L276.507 178.252H303.232L316.201 198.284L303.232 217.977Z" fill="white"/>
<path d="M302.961 178.752L315.604 198.281L302.963 217.477H276.771L263.747 198.281L276.774 178.752H302.961Z" stroke="black" stroke-opacity="0.08"/>
<path d="M303.625 269.925H276.114L262.358 249.214L276.114 228.842H303.625L316.987 249.214L303.625 269.925Z" fill="white"/>
<path d="M303.355 229.342L316.391 249.216L303.354 269.425H276.382L262.96 249.215L276.38 229.342H303.355Z" stroke="black" stroke-opacity="0.08"/>
<path d="M303.625 320.856H276.114L262.358 300.484L276.114 280.112H303.625L316.987 300.484L303.625 320.856Z" fill="white"/>
<path d="M303.355 280.612L316.389 300.484L303.355 320.355H276.379L262.961 300.483L276.38 280.612H303.355Z" stroke="black" stroke-opacity="0.08"/>
<path d="M303.625 372.124H276.114L262.358 351.752L276.114 331.041H303.625L316.987 351.752L303.625 372.124Z" fill="white"/>
<path d="M303.353 331.541L316.391 351.749L303.355 371.624H276.379L262.96 351.75L276.382 331.541H303.353Z" stroke="black" stroke-opacity="0.08"/>
<path d="M303.625 423.394H276.114L262.358 402.682L276.114 382.311H303.625L316.987 402.682L303.625 423.394Z" fill="white"/>
<path d="M303.355 382.811L316.391 402.685L303.354 422.894H276.382L262.96 402.684L276.38 382.811H303.355Z" stroke="black" stroke-opacity="0.08"/>
<path d="M252.14 500.129H224.629L211.267 479.757L224.629 459.046H252.14L265.895 479.757L252.14 500.129Z" fill="white"/>
<path d="M251.872 459.546L265.293 479.755L251.875 499.629H224.898L211.862 479.755L224.901 459.546H251.872Z" stroke="black" stroke-opacity="0.08"/>
<path d="M303.625 525.592H276.114L262.358 505.22L276.114 484.849H303.625L316.987 505.22L303.625 525.592Z" fill="white"/>
<path d="M303.355 485.349L316.389 505.221L303.355 525.092H276.379L262.961 505.22L276.38 485.349H303.355Z" stroke="black" stroke-opacity="0.08"/>
<path d="M354.717 551.396H327.206L313.844 530.684L327.206 510.312H354.717L368.473 530.684L354.717 551.396Z" fill="white"/>
<path d="M354.451 510.812L367.871 530.686L354.449 550.896H327.479L314.439 530.687L327.476 510.812H354.451Z" stroke="black" stroke-opacity="0.08"/>
<path d="M406.202 576.86H378.691L364.936 556.488L378.691 535.776H406.202L419.565 556.488L406.202 576.86Z" fill="white"/>
<path d="M405.93 536.276L418.968 556.485L405.933 576.359H378.956L365.537 556.485L378.959 536.276H405.93Z" stroke="black" stroke-opacity="0.08"/>
<path d="M455.722 599.948H431.355L419.564 581.953L431.355 563.958H455.722L467.905 581.953L455.722 599.948Z" fill="white"/>
<path d="M455.456 564.458L467.301 581.953L455.456 599.448H431.626L420.162 581.953L431.626 564.458H455.456Z" stroke="black" stroke-opacity="0.08"/>
<path d="M498.954 613.532H491.093L487.163 607.42L491.093 601.648H498.954L502.884 607.42L498.954 613.532Z" fill="white"/>
<path d="M498.689 602.148L502.284 607.428L498.681 613.032H491.366L487.762 607.428L491.357 602.148H498.689Z" stroke="black" stroke-opacity="0.08"/>
<path d="M602.709 666.157H592.491L587.382 658.687L592.491 651.218H602.709L607.819 658.687L602.709 666.157Z" fill="white"/>
<path d="M602.446 651.718L607.213 658.688L602.446 665.657H592.755L587.987 658.688L592.755 651.718H602.446Z" stroke="black" stroke-opacity="0.08"/>
<path d="M662.448 653.595H635.33L621.574 633.223L635.33 612.512H662.448L676.203 633.223L662.448 653.595Z" fill="white"/>
<path d="M662.18 613.012L675.602 633.221L662.183 653.095H635.595L622.176 633.221L635.598 613.012H662.18Z" stroke="black" stroke-opacity="0.08"/>
<path d="M713.933 628.13H686.422L672.666 607.419L686.422 587.047H713.933L727.688 607.419L713.933 628.13Z" fill="white"/>
<path d="M713.667 587.547L727.086 607.42L713.664 627.63H686.689L673.268 607.42L686.688 587.547H713.667Z" stroke="black" stroke-opacity="0.08"/>
<path d="M765.024 602.327H737.906L724.15 581.955L737.906 561.583H765.024L778.779 581.955L765.024 602.327Z" fill="white"/>
<path d="M764.758 562.083L778.176 581.954L764.759 601.826H738.171L724.753 581.954L738.172 562.083H764.758Z" stroke="black" stroke-opacity="0.08"/>
<path d="M816.509 576.86H788.998L775.242 556.488L788.998 535.776H816.509L830.264 556.488L816.509 576.86Z" fill="white"/>
<path d="M816.24 536.276L829.662 556.485L816.244 576.359H789.263L775.844 556.485L789.266 536.276H816.24Z" stroke="black" stroke-opacity="0.08"/>
<path d="M867.601 551.396H840.483L826.728 530.684L840.483 510.312H867.601L881.357 530.684L867.601 551.396Z" fill="white"/>
<path d="M867.335 510.812L880.755 530.686L867.333 550.896H840.751L827.329 530.686L840.749 510.812H867.335Z" stroke="black" stroke-opacity="0.08"/>
<path d="M919.086 525.592H891.575L877.819 505.22L891.575 484.849H919.086L932.841 505.22L919.086 525.592Z" fill="white"/>
<path d="M918.82 485.349L932.237 505.22L918.821 525.092H891.84L878.422 505.22L891.841 485.349H918.82Z" stroke="black" stroke-opacity="0.08"/>
<path d="M970.177 500.129H943.059L929.304 479.757L943.059 459.046H970.177L983.933 479.757L970.177 500.129Z" fill="white"/>
<path d="M969.909 459.546L983.331 479.755L969.912 499.629H943.324L929.905 479.755L943.327 459.546H969.909Z" stroke="black" stroke-opacity="0.08"/>
<path d="M970.177 448.858H943.059L929.304 428.486L943.059 408.114H970.177L983.933 428.486L970.177 448.858Z" fill="white"/>
<path d="M969.911 408.614L983.329 428.485L969.912 448.357H943.324L929.906 428.485L943.325 408.614H969.911Z" stroke="black" stroke-opacity="0.08"/>
<path d="M970.177 397.59H943.059L929.304 377.218L943.059 356.847H970.177L983.933 377.218L970.177 397.59Z" fill="white"/>
<path d="M969.911 357.347L983.329 377.218L969.912 397.09H943.324L929.906 377.218L943.325 357.347H969.911Z" stroke="black" stroke-opacity="0.08"/>
<path d="M970.177 346.659H943.059L929.304 325.948L943.059 305.576H970.177L983.933 325.948L970.177 346.659Z" fill="white"/>
<path d="M969.911 306.076L983.331 325.949L969.909 346.159H943.327L929.905 325.949L943.325 306.076H969.911Z" stroke="black" stroke-opacity="0.08"/>
<path d="M970.177 295.392H943.059L929.304 275.02L943.059 254.309H970.177L983.933 275.02L970.177 295.392Z" fill="white"/>
<path d="M969.909 254.809L983.331 275.018L969.912 294.892H943.324L929.905 275.018L943.327 254.809H969.909Z" stroke="black" stroke-opacity="0.08"/>
<path d="M970.177 244.121H943.059L929.304 223.749L943.059 203.377H970.177L983.933 223.749L970.177 244.121Z" fill="white"/>
<path d="M969.911 203.877L983.329 223.748L969.912 243.62H943.324L929.906 223.748L943.325 203.877H969.911Z" stroke="black" stroke-opacity="0.08"/>
<path d="M970.177 193.194H943.059L929.304 172.482L943.059 152.11H970.177L983.933 172.482L970.177 193.194Z" fill="white"/>
<path d="M969.911 152.61L983.331 172.483L969.909 192.693H943.327L929.905 172.483L943.325 152.61H969.911Z" stroke="black" stroke-opacity="0.08"/>
<path d="M456.508 38.3668H430.962L417.992 19.0136L430.962 0H456.508L469.477 19.0136L456.508 38.3668Z" fill="white"/>
<path d="M456.243 0.5L468.873 19.0156L456.24 37.8672H431.229L418.595 19.0156L431.227 0.5H456.243Z" stroke="black" stroke-opacity="0.08"/>
<path d="M402.664 60.0955H381.834L371.616 44.8166L381.834 29.1982H402.664L413.276 44.8166L402.664 60.0955Z" fill="white"/>
<path d="M402.399 29.6982L412.669 44.8135L402.403 59.5957H382.102L372.215 44.8125L382.104 29.6982H402.399Z" stroke="black" stroke-opacity="0.08"/>
<path d="M343.713 74.3557H338.211L335.853 70.2813L338.211 66.207H343.713L346.464 70.2813L343.713 74.3557Z" fill="white"/>
<path d="M343.447 66.707L345.86 70.2812L343.448 73.8555H338.499L336.43 70.2812L338.499 66.707H343.447Z" stroke="black" stroke-opacity="0.08"/>
<path d="M246.245 235.296H230.918L223.058 223.752L230.918 212.208H246.245L253.713 223.752L246.245 235.296Z" fill="white"/>
<path d="M245.973 212.708L253.117 223.752L245.973 234.796H231.182L223.662 223.752L231.182 212.708H245.973Z" stroke="black" stroke-opacity="0.08"/>
<path d="M252.14 295.392H224.629L211.267 275.02L224.629 254.309H252.14L265.895 275.02L252.14 295.392Z" fill="#014C8F"/>
<path d="M251.872 254.809L265.293 275.018L251.875 294.892H224.898L211.862 275.018L224.901 254.809H251.872Z" stroke="black" stroke-opacity="0.08"/>
<path d="M252.14 346.659H224.629L211.267 325.948L224.629 305.576H252.14L265.895 325.948L252.14 346.659Z" fill="white"/>
<path d="M251.874 306.076L265.293 325.949L251.872 346.159H224.901L211.862 325.95L224.898 306.076H251.874Z" stroke="black" stroke-opacity="0.08"/>
<path d="M252.14 397.59H224.629L211.267 377.218L224.629 356.847H252.14L265.895 377.218L252.14 397.59Z" fill="white"/>
<path d="M251.874 357.347L265.292 377.218L251.875 397.09H224.898L211.864 377.219L224.898 357.347H251.874Z" stroke="black" stroke-opacity="0.08"/>
<path d="M252.14 448.858H224.629L211.267 428.486L224.629 408.114H252.14L265.895 428.486L252.14 448.858Z" fill="white"/>
<path d="M251.874 408.614L265.292 428.485L251.875 448.357H224.898L211.864 428.486L224.898 408.614H251.874Z" stroke="black" stroke-opacity="0.08"/>
<path d="M190.044 509.296H184.542L181.791 505.222L184.542 501.147H190.044L192.402 505.222L190.044 509.296Z" fill="white"/>
<path d="M189.756 501.647L191.824 505.222L189.756 508.796H184.807L182.394 505.222L184.807 501.647H189.756Z" stroke="black" stroke-opacity="0.08"/>
<path d="M252.141 551.055H225.023L211.66 530.684L225.023 510.651H252.141L265.503 530.684L252.141 551.055Z" fill="white"/>
<path d="M251.873 511.151L264.903 530.686L251.871 550.556H225.292L212.259 530.686L225.29 511.151H251.873Z" stroke="black" stroke-opacity="0.08"/>
<path d="M303.625 576.86H276.114L262.358 556.488L276.114 535.776H303.625L316.987 556.488L303.625 576.86Z" fill="white"/>
<path d="M303.353 536.276L316.391 556.485L303.355 576.359H276.379L262.96 556.485L276.382 536.276H303.353Z" stroke="black" stroke-opacity="0.08"/>
<path d="M354.717 602.327H327.206L313.844 581.955L327.206 561.583H354.717L368.473 581.955L354.717 602.327Z" fill="white"/>
<path d="M354.451 562.083L367.869 581.954L354.452 601.826H327.476L314.441 581.955L327.476 562.083H354.451Z" stroke="black" stroke-opacity="0.08"/>
<path d="M401.879 621.681H383.014L373.188 607.42L383.014 593.16H401.879L411.311 607.42L401.879 621.681Z" fill="white"/>
<path d="M401.61 593.66L410.711 607.42L401.61 621.181H383.277L373.796 607.42L383.276 593.66H401.61Z" stroke="black" stroke-opacity="0.08"/>
<path d="M608.998 726.933H586.203L574.806 709.957L586.203 692.98H608.998L620.395 709.957L608.998 726.933Z" fill="white"/>
<path d="M608.731 693.48L619.793 709.956L608.731 726.434H586.47L575.407 709.956L586.47 693.48H608.731Z" stroke="black" stroke-opacity="0.08"/>
<path d="M662.448 704.864H635.33L621.574 684.153L635.33 663.781H662.448L676.203 684.153L662.448 704.864Z" fill="white"/>
<path d="M662.182 664.281L675.602 684.154L662.18 704.364H635.598L622.176 684.154L635.596 664.281H662.182Z" stroke="black" stroke-opacity="0.08"/>
<path d="M713.933 679.061H686.422L672.666 658.689L686.422 638.317H713.933L727.688 658.689L713.933 679.061Z" fill="white"/>
<path d="M713.667 638.817L727.084 658.688L713.668 678.561H686.687L673.269 658.688L686.688 638.817H713.667Z" stroke="black" stroke-opacity="0.08"/>
<path d="M765.024 653.595H737.906L724.15 633.223L737.906 612.512H765.024L778.779 633.223L765.024 653.595Z" fill="white"/>
<path d="M764.756 613.012L778.177 633.221L764.759 653.095H738.171L724.752 633.221L738.174 613.012H764.756Z" stroke="black" stroke-opacity="0.08"/>
<path d="M816.509 628.13H788.998L775.242 607.419L788.998 587.047H816.509L830.264 607.419L816.509 628.13Z" fill="white"/>
<path d="M816.243 587.547L829.662 607.42L816.24 627.63H789.266L775.844 607.42L789.264 587.547H816.243Z" stroke="black" stroke-opacity="0.08"/>
<path d="M867.601 602.327H840.483L826.728 581.955L840.483 561.583H867.601L881.357 581.955L867.601 602.327Z" fill="white"/>
<path d="M867.335 562.083L880.753 581.954L867.336 601.826H840.748L827.33 581.954L840.749 562.083H867.335Z" stroke="black" stroke-opacity="0.08"/>
<path d="M919.086 576.86H891.575L877.819 556.488L891.575 535.776H919.086L932.841 556.488L919.086 576.86Z" fill="white"/>
<path d="M918.817 536.276L932.239 556.485L918.821 576.359H891.84L878.421 556.485L891.843 536.276H918.817Z" stroke="black" stroke-opacity="0.08"/>
<path d="M970.177 551.396H943.059L929.304 530.684L943.059 510.312H970.177L983.933 530.684L970.177 551.396Z" fill="white"/>
<path d="M969.911 510.812L983.331 530.686L969.909 550.896H943.327L929.905 530.686L943.325 510.812H969.911Z" stroke="black" stroke-opacity="0.08"/>
<path d="M1021.66 525.592H994.151L980.396 505.22L994.151 484.849H1021.66L1035.42 505.22L1021.66 525.592Z" fill="white"/>
<path d="M1021.4 485.349L1034.81 505.22L1021.4 525.092H994.416L980.998 505.22L994.417 485.349H1021.4Z" stroke="black" stroke-opacity="0.08"/>
<path d="M1021.66 474.323H994.151L980.396 453.951L994.151 433.579H1021.66L1035.42 453.951L1021.66 474.323Z" fill="#9747FF"/>
<path d="M1021.4 434.079L1034.81 453.95L1021.4 473.822H994.416L980.998 453.95L994.417 434.079H1021.4Z" stroke="black" stroke-opacity="0.08"/>
<path d="M1021.66 423.394H994.151L980.396 402.682L994.151 382.311H1021.66L1035.42 402.682L1021.66 423.394Z" fill="white"/>
<path d="M1021.4 382.811L1034.82 402.684L1021.39 422.894H994.419L980.997 402.684L994.417 382.811H1021.4Z" stroke="black" stroke-opacity="0.08"/>
<path d="M1021.66 372.124H994.151L980.396 351.752L994.151 331.041H1021.66L1035.42 351.752L1021.66 372.124Z" fill="white"/>
<path d="M1021.39 331.541L1034.82 351.75L1021.4 371.624H994.416L980.997 351.75L994.419 331.541H1021.39Z" stroke="black" stroke-opacity="0.08"/>
<path d="M1021.66 320.856H994.151L980.396 300.484L994.151 280.112H1021.66L1035.42 300.484L1021.66 320.856Z" fill="white"/>
<path d="M1021.4 280.612L1034.81 300.483L1021.4 320.355H994.416L980.998 300.483L994.417 280.612H1021.4Z" stroke="black" stroke-opacity="0.08"/>
<path d="M1021.66 269.925H994.151L980.396 249.214L994.151 228.842H1021.66L1035.42 249.214L1021.66 269.925Z" fill="white"/>
<path d="M1021.4 229.342L1034.82 249.215L1021.39 269.425H994.419L980.997 249.215L994.417 229.342H1021.4Z" stroke="black" stroke-opacity="0.08"/>
<path d="M1021.66 218.657H994.151L980.396 198.286L994.151 177.574H1021.66L1035.42 198.286L1021.66 218.657Z" fill="white"/>
<path d="M1021.39 178.074L1034.82 198.283L1021.4 218.157H994.416L980.997 198.283L994.419 178.074H1021.39Z" stroke="black" stroke-opacity="0.08"/>
<path d="M1017.34 161.276H998.475L988.649 147.016L998.475 132.756H1017.34L1027.16 147.016L1017.34 161.276Z" fill="white"/>
<path d="M1017.08 133.256L1026.56 147.016L1017.08 160.776H998.737L989.257 147.016L998.737 133.256H1017.08Z" stroke="black" stroke-opacity="0.08"/>
<path d="M192.795 308.973H181.398L175.896 300.484L181.398 291.996H192.795L198.69 300.484L192.795 308.973Z" fill="white"/>
<path d="M192.534 292.496L198.081 300.484L192.534 308.473H181.67L176.491 300.483L181.669 292.496H192.534Z" stroke="black" stroke-opacity="0.08"/>
<path d="M199.477 370.428H174.717L162.141 351.754L174.717 333.08H199.477L212.053 351.754L199.477 370.428Z" fill="white"/>
<path d="M199.211 333.58L211.45 351.754L199.211 369.929H174.983L162.743 351.754L174.983 333.58H199.211Z" stroke="black" stroke-opacity="0.08"/>
<path d="M199.477 421.356H174.717L162.141 402.682L174.717 384.348H199.477L212.053 402.682L199.477 421.356Z" fill="white"/>
<path d="M199.213 384.848L211.448 402.685L199.211 420.856H174.983L162.744 402.684L174.98 384.848H199.213Z" stroke="black" stroke-opacity="0.08"/>
<path d="M199.477 472.624H174.717L162.141 453.95L174.717 435.275H199.477L212.053 453.95L199.477 472.624Z" fill="white"/>
<path d="M199.211 435.775L211.45 453.949L199.211 472.124H174.983L162.743 453.949L174.983 435.775H199.211Z" stroke="black" stroke-opacity="0.08"/>
<path d="M240.743 585.349H236.42L234.062 581.954L236.42 578.559H240.743L243.101 581.954L240.743 585.349Z" fill="white"/>
<path d="M240.481 579.059L242.492 581.954L240.481 584.85H236.681L234.67 581.954L236.681 579.059H240.481Z" stroke="black" stroke-opacity="0.08"/>
<path d="M294.586 614.549H285.154L280.438 607.419L285.154 600.289H294.586L299.302 607.419L294.586 614.549Z" fill="white"/>
<path d="M294.317 600.789L298.702 607.419L294.316 614.05H285.423L281.036 607.419L285.422 600.789H294.317Z" stroke="black" stroke-opacity="0.08"/>
<path d="M662.448 755.792H635.33L621.574 735.421L635.33 715.049H662.448L676.203 735.421L662.448 755.792Z" fill="white"/>
<path d="M662.182 715.549L675.6 735.42L662.183 755.292H635.595L622.177 735.42L635.596 715.549H662.182Z" stroke="black" stroke-opacity="0.08"/>
<path d="M713.933 730.329H686.422L672.666 709.957L686.422 689.246H713.933L727.688 709.957L713.933 730.329Z" fill="white"/>
<path d="M713.664 689.746L727.086 709.955L713.668 729.829H686.687L673.268 709.955L686.689 689.746H713.664Z" stroke="black" stroke-opacity="0.08"/>
<path d="M765.024 704.864H737.906L724.15 684.153L737.906 663.781H765.024L778.779 684.153L765.024 704.864Z" fill="white"/>
<path d="M764.758 664.281L778.177 684.154L764.756 704.364H738.174L724.752 684.154L738.172 664.281H764.758Z" stroke="black" stroke-opacity="0.08"/>
<path d="M816.509 679.061H788.998L775.242 658.689L788.998 638.317H816.509L830.264 658.689L816.509 679.061Z" fill="white"/>
<path d="M816.243 638.817L829.66 658.688L816.244 678.561H789.263L775.845 658.688L789.264 638.817H816.243Z" stroke="black" stroke-opacity="0.08"/>
<path d="M867.601 653.595H840.483L826.728 633.223L840.483 612.512H867.601L881.357 633.223L867.601 653.595Z" fill="white"/>
<path d="M867.333 613.012L880.755 633.221L867.336 653.095H840.748L827.329 633.221L840.751 613.012H867.333Z" stroke="black" stroke-opacity="0.08"/>
<path d="M919.086 628.13H891.575L877.819 607.419L891.575 587.047H919.086L932.841 607.419L919.086 628.13Z" fill="#9747FF"/>
<path d="M918.82 587.547L932.239 607.42L918.817 627.63H891.843L878.421 607.42L891.841 587.547H918.82Z" stroke="black" stroke-opacity="0.08"/>
<path d="M970.177 602.327H943.059L929.304 581.955L943.059 561.583H970.177L983.933 581.955L970.177 602.327Z" fill="white"/>
<path d="M969.911 562.083L983.329 581.954L969.912 601.826H943.324L929.906 581.954L943.325 562.083H969.911Z" stroke="black" stroke-opacity="0.08"/>
<path d="M1021.66 576.86H994.151L980.396 556.488L994.151 535.776H1021.66L1035.42 556.488L1021.66 576.86Z" fill="white"/>
<path d="M1021.39 536.276L1034.82 556.485L1021.4 576.359H994.416L980.997 556.485L994.419 536.276H1021.39Z" stroke="black" stroke-opacity="0.08"/>
<path d="M1072.75 551.396H1045.64L1031.88 530.684L1045.64 510.312H1072.75L1086.51 530.684L1072.75 551.396Z" fill="white"/>
<path d="M1072.49 510.812L1085.91 530.686L1072.49 550.896H1045.9L1032.48 530.686L1045.9 510.812H1072.49Z" stroke="black" stroke-opacity="0.08"/>
<path d="M1072.75 500.129H1045.64L1031.88 479.757L1045.64 459.046H1072.75L1086.51 479.757L1072.75 500.129Z" fill="white"/>
<path d="M1072.49 459.546L1085.91 479.755L1072.49 499.629H1045.9L1032.48 479.755L1045.9 459.546H1072.49Z" stroke="black" stroke-opacity="0.08"/>
<path d="M1072.75 448.858H1045.64L1031.88 428.486L1045.64 408.114H1072.75L1086.51 428.486L1072.75 448.858Z" fill="white"/>
<path d="M1072.49 408.614L1085.91 428.485L1072.49 448.357H1045.9L1032.48 428.485L1045.9 408.614H1072.49Z" stroke="black" stroke-opacity="0.08"/>
<path d="M1072.75 397.59H1045.64L1031.88 377.218L1045.64 356.847H1072.75L1086.51 377.218L1072.75 397.59Z" fill="white"/>
<path d="M1072.49 357.347L1085.91 377.218L1072.49 397.09H1045.9L1032.48 377.218L1045.9 357.347H1072.49Z" stroke="black" stroke-opacity="0.08"/>
<path d="M1072.75 345.98H1045.64L1032.27 325.947L1045.64 305.915H1072.75L1086.12 325.947L1072.75 345.98Z" fill="white"/>
<path d="M1072.49 306.415L1085.52 325.947L1072.49 345.479H1045.9L1032.88 325.947L1045.9 306.415H1072.49Z" stroke="black" stroke-opacity="0.08"/>
<path d="M661.269 805.365H636.509L623.933 786.691L636.509 768.017H661.269L673.845 786.691L661.269 805.365Z" fill="white"/>
<path d="M661.003 768.517L673.242 786.69L661.003 804.865H636.775L624.535 786.69L636.775 768.517H661.003Z" stroke="black" stroke-opacity="0.08"/>
<path d="M713.933 781.597H686.422L672.666 760.885L686.422 740.514H713.933L727.688 760.885L713.933 781.597Z" fill="white"/>
<path d="M713.667 741.014L727.086 760.887L713.664 781.097H686.689L673.268 760.887L686.688 741.014H713.667Z" stroke="black" stroke-opacity="0.08"/>
<path d="M765.024 755.792H737.906L724.15 735.421L737.906 715.049H765.024L778.779 735.421L765.024 755.792Z" fill="white"/>
<path d="M764.758 715.549L778.176 735.42L764.759 755.292H738.171L724.753 735.42L738.172 715.549H764.758Z" stroke="black" stroke-opacity="0.08"/>
<path d="M816.509 730.329H788.998L775.242 709.957L788.998 689.246H816.509L830.264 709.957L816.509 730.329Z" fill="white"/>
<path d="M816.24 689.746L829.662 709.955L816.244 729.829H789.263L775.844 709.955L789.266 689.746H816.24Z" stroke="black" stroke-opacity="0.08"/>
<path d="M867.601 704.864H840.483L826.728 684.153L840.483 663.781H867.601L881.357 684.153L867.601 704.864Z" fill="white"/>
<path d="M867.335 664.281L880.755 684.154L867.333 704.364H840.751L827.329 684.154L840.749 664.281H867.335Z" stroke="black" stroke-opacity="0.08"/>
<path d="M919.086 679.061H891.575L877.819 658.689L891.575 638.317H919.086L932.841 658.689L919.086 679.061Z" fill="white"/>
<path d="M918.82 638.817L932.237 658.688L918.821 678.561H891.84L878.422 658.688L891.841 638.817H918.82Z" stroke="black" stroke-opacity="0.08"/>
<path d="M970.177 653.595H943.059L929.304 633.223L943.059 612.512H970.177L983.933 633.223L970.177 653.595Z" fill="white"/>
<path d="M969.909 613.012L983.331 633.221L969.912 653.095H943.324L929.905 633.221L943.327 613.012H969.909Z" stroke="black" stroke-opacity="0.08"/>
<path d="M1021.66 628.13H994.151L980.396 607.419L994.151 587.047H1021.66L1035.42 607.419L1021.66 628.13Z" fill="white"/>
<path d="M1021.4 587.547L1034.82 607.42L1021.39 627.63H994.419L980.997 607.42L994.417 587.547H1021.4Z" stroke="black" stroke-opacity="0.08"/>
<path d="M1072.75 602.327H1045.64L1031.88 581.955L1045.64 561.583H1072.75L1086.51 581.955L1072.75 602.327Z" fill="white"/>
<path d="M1072.49 562.083L1085.91 581.954L1072.49 601.826H1045.9L1032.48 581.954L1045.9 562.083H1072.49Z" stroke="black" stroke-opacity="0.08"/>
<path d="M1124.24 576.86H1096.73L1082.97 556.488L1096.73 535.776H1124.24L1137.99 556.488L1124.24 576.86Z" fill="white"/>
<path d="M1123.97 536.276L1137.39 556.485L1123.97 576.359H1096.99L1083.57 556.485L1097 536.276H1123.97Z" stroke="black" stroke-opacity="0.08"/>
<path d="M1124.24 525.592H1096.73L1082.97 505.22L1096.73 484.849H1124.24L1137.99 505.22L1124.24 525.592Z" fill="white"/>
<path d="M1123.97 485.349L1137.39 505.22L1123.97 525.092H1096.99L1083.58 505.22L1096.99 485.349H1123.97Z" stroke="black" stroke-opacity="0.08"/>
<path d="M1124.24 474.323H1096.73L1082.97 453.951L1096.73 433.579H1124.24L1137.99 453.951L1124.24 474.323Z" fill="white"/>
<path d="M1123.97 434.079L1137.39 453.95L1123.97 473.822H1096.99L1083.58 453.95L1096.99 434.079H1123.97Z" stroke="black" stroke-opacity="0.08"/>
<path d="M1119.92 416.944H1101.05L1091.62 402.683L1101.05 388.763H1119.92L1129.35 402.683L1119.92 416.944Z" fill="white"/>
<path d="M1119.65 389.263L1128.75 402.687L1119.65 416.443H1101.32L1092.22 402.687L1101.32 389.263H1119.65Z" stroke="black" stroke-opacity="0.08"/>
<path d="M1113.24 355.487H1107.73L1105.38 351.752L1107.73 347.678H1113.24L1115.59 351.752L1113.24 355.487Z" fill="white"/>
<path d="M1112.95 348.178L1115.01 351.741L1112.96 354.987H1108.01L1105.96 351.74L1108.02 348.178H1112.95Z" stroke="black" stroke-opacity="0.08"/>
<path d="M87.0742 406.417H82.358L80 402.682L82.358 399.287H87.0742L89.4324 402.682L87.0742 406.417Z" fill="white"/>
<path d="M86.8125 399.787L88.832 402.695L86.7988 405.917H82.6338L80.5996 402.695L82.6191 399.787H86.8125Z" stroke="black" stroke-opacity="0.08"/>
<path d="M657.732 851.2H640.046L631.007 837.619L640.046 824.377H657.732L666.771 837.619L657.732 851.2Z" fill="white"/>
<path d="M657.467 824.877L666.168 837.621L657.464 850.7H640.313L631.609 837.622L640.311 824.877H657.467Z" stroke="black" stroke-opacity="0.08"/>
<path d="M713.933 832.528H686.422L672.666 812.156L686.422 791.784H713.933L727.688 812.156L713.933 832.528Z" fill="white"/>
<path d="M713.667 792.284L727.084 812.155L713.668 832.027H686.687L673.269 812.155L686.688 792.284H713.667Z" stroke="black" stroke-opacity="0.08"/>
<path d="M765.024 807.065H737.906L724.15 786.693L737.906 765.981H765.024L778.779 786.693L765.024 807.065Z" fill="white"/>
<path d="M764.756 766.481L778.177 786.69L764.759 806.564H738.171L724.752 786.69L738.174 766.481H764.756Z" stroke="black" stroke-opacity="0.08"/>
<path d="M816.509 781.597H788.998L775.242 760.885L788.998 740.514H816.509L830.264 760.885L816.509 781.597Z" fill="white"/>
<path d="M816.243 741.014L829.662 760.887L816.24 781.097H789.266L775.844 760.887L789.264 741.014H816.243Z" stroke="black" stroke-opacity="0.08"/>
<path d="M867.601 755.792H840.483L826.728 735.421L840.483 715.049H867.601L881.357 735.421L867.601 755.792Z" fill="#014C8F"/>
<path d="M867.335 715.549L880.753 735.42L867.336 755.292H840.748L827.33 735.42L840.749 715.549H867.335Z" stroke="black" stroke-opacity="0.08"/>
<path d="M919.086 730.329H891.575L877.819 709.957L891.575 689.246H919.086L932.841 709.957L919.086 730.329Z" fill="white"/>
<path d="M918.817 689.746L932.239 709.955L918.821 729.829H891.84L878.421 709.955L891.843 689.746H918.817Z" stroke="black" stroke-opacity="0.08"/>
<path d="M970.177 704.864H943.059L929.304 684.153L943.059 663.781H970.177L983.933 684.153L970.177 704.864Z" fill="white"/>
<path d="M969.911 664.281L983.331 684.154L969.909 704.364H943.327L929.905 684.154L943.325 664.281H969.911Z" stroke="black" stroke-opacity="0.08"/>
<path d="M1021.66 679.061H994.151L980.396 658.689L994.151 638.317H1021.66L1035.42 658.689L1021.66 679.061Z" fill="white"/>
<path d="M1021.4 638.817L1034.81 658.688L1021.4 678.561H994.416L980.998 658.688L994.417 638.817H1021.4Z" stroke="black" stroke-opacity="0.08"/>
<path d="M1072.75 653.595H1045.64L1031.88 633.223L1045.64 612.512H1072.75L1086.51 633.223L1072.75 653.595Z" fill="white"/>
<path d="M1072.49 613.012L1085.91 633.221L1072.49 653.095H1045.9L1032.48 633.221L1045.9 613.012H1072.49Z" stroke="black" stroke-opacity="0.08"/>
<path d="M1124.24 628.13H1096.73L1082.97 607.419L1096.73 587.047H1124.24L1137.99 607.419L1124.24 628.13Z" fill="white"/>
<path d="M1123.97 587.547L1137.39 607.42L1123.97 627.63H1097L1083.57 607.42L1096.99 587.547H1123.97Z" stroke="black" stroke-opacity="0.08"/>
<path d="M1175.33 602.327H1148.21L1134.46 581.955L1148.21 561.583H1175.33L1189.09 581.955L1175.33 602.327Z" fill="white"/>
<path d="M1175.07 562.083L1188.48 581.954L1175.07 601.826H1148.48L1135.06 581.954L1148.48 562.083H1175.07Z" stroke="black" stroke-opacity="0.08"/>
<path d="M1175.33 551.396H1148.21L1134.46 530.684L1148.21 510.312H1175.33L1189.09 530.684L1175.33 551.396Z" fill="white"/>
<path d="M1175.07 510.812L1188.49 530.686L1175.06 550.896H1148.48L1135.06 530.686L1148.48 510.812H1175.07Z" stroke="black" stroke-opacity="0.08"/>
<path d="M1175.33 499.789H1148.21L1134.85 479.757L1148.21 459.385H1175.33L1188.69 479.757L1175.33 499.789Z" fill="white"/>
<path d="M1175.06 459.885L1188.09 479.754L1175.06 499.289H1148.48L1135.45 479.754L1148.48 459.885H1175.06Z" stroke="black" stroke-opacity="0.08"/>
<path d="M1166.29 435.276H1157.25L1152.54 428.486L1157.25 421.355H1166.29L1171.01 428.486L1166.29 435.276Z" fill="white"/>
<path d="M1166.02 421.855L1170.4 428.478L1166.03 434.776H1157.51L1153.14 428.478L1157.52 421.855H1166.02Z" stroke="black" stroke-opacity="0.08"/>
<path d="M713.933 883.798H686.422L672.666 863.426L686.422 843.055H713.933L727.688 863.426L713.933 883.798Z" fill="white"/>
<path d="M713.667 843.555L727.084 863.426L713.668 883.298H686.687L673.269 863.426L686.688 843.555H713.667Z" stroke="black" stroke-opacity="0.08"/>
<path d="M765.024 858.331H737.906L724.15 837.62L737.906 817.248H765.024L778.779 837.62L765.024 858.331Z" fill="white"/>
<path d="M764.758 817.748L778.177 837.621L764.756 857.831H738.174L724.752 837.621L738.172 817.748H764.758Z" stroke="black" stroke-opacity="0.08"/>
<path d="M816.509 832.528H788.998L775.242 812.156L788.998 791.784H816.509L830.264 812.156L816.509 832.528Z" fill="white"/>
<path d="M816.243 792.284L829.66 812.155L816.244 832.027H789.263L775.845 812.155L789.264 792.284H816.243Z" stroke="black" stroke-opacity="0.08"/>
<path d="M867.601 807.065H840.483L826.728 786.693L840.483 765.981H867.601L881.357 786.693L867.601 807.065Z" fill="white"/>
<path d="M867.333 766.481L880.755 786.69L867.336 806.564H840.748L827.329 786.69L840.751 766.481H867.333Z" stroke="black" stroke-opacity="0.08"/>
<path d="M919.086 781.597H891.575L877.819 760.885L891.575 740.514H919.086L932.841 760.885L919.086 781.597Z" fill="white"/>
<path d="M918.82 741.014L932.239 760.887L918.817 781.097H891.843L878.421 760.887L891.841 741.014H918.82Z" stroke="black" stroke-opacity="0.08"/>
<path d="M970.177 755.792H943.059L929.304 735.421L943.059 715.049H970.177L983.933 735.421L970.177 755.792Z" fill="white"/>
<path d="M969.911 715.549L983.329 735.42L969.912 755.292H943.324L929.906 735.42L943.325 715.549H969.911Z" stroke="black" stroke-opacity="0.08"/>
<path d="M1021.66 730.329H994.151L980.396 709.957L994.151 689.246H1021.66L1035.42 709.957L1021.66 730.329Z" fill="white"/>
<path d="M1021.39 689.746L1034.82 709.955L1021.4 729.829H994.416L980.997 709.955L994.419 689.746H1021.39Z" stroke="black" stroke-opacity="0.08"/>
<path d="M1072.75 704.864H1045.64L1031.88 684.153L1045.64 663.781H1072.75L1086.51 684.153L1072.75 704.864Z" fill="white"/>
<path d="M1072.49 664.281L1085.91 684.154L1072.49 704.364H1045.9L1032.48 684.154L1045.9 664.281H1072.49Z" stroke="black" stroke-opacity="0.08"/>
<path d="M1124.24 679.061H1096.73L1082.97 658.689L1096.73 638.317H1124.24L1137.99 658.689L1124.24 679.061Z" fill="white"/>
<path d="M1123.97 638.817L1137.39 658.688L1123.97 678.561H1096.99L1083.58 658.688L1096.99 638.817H1123.97Z" stroke="black" stroke-opacity="0.08"/>
<path d="M1175.33 653.595H1148.21L1134.46 633.223L1148.21 612.512H1175.33L1189.09 633.223L1175.33 653.595Z" fill="white"/>
<path d="M1175.06 613.012L1188.49 633.221L1175.07 653.095H1148.48L1135.06 633.221L1148.48 613.012H1175.06Z" stroke="black" stroke-opacity="0.08"/>
<path d="M1226.82 628.13H1199.31L1185.55 607.419L1199.31 587.047H1226.82L1240.57 607.419L1226.82 628.13Z" fill="white"/>
<path d="M1226.55 587.547L1239.97 607.42L1226.55 627.63H1199.57L1186.15 607.42L1199.57 587.547H1226.55Z" stroke="black" stroke-opacity="0.08"/>
<path d="M1226.82 576.86H1199.31L1185.55 556.488L1199.31 535.776H1226.82L1240.57 556.488L1226.82 576.86Z" fill="white"/>
<path d="M1226.55 536.276L1239.97 556.485L1226.55 576.359H1199.57L1186.15 556.485L1199.57 536.276H1226.55Z" stroke="black" stroke-opacity="0.08"/>
<path d="M1226.82 525.592H1199.3L1185.94 505.22L1199.3 484.849H1226.82L1240.18 505.22L1226.82 525.592Z" fill="white"/>
<path d="M1226.55 485.349L1239.58 505.221L1226.55 525.092H1199.57L1186.54 505.221L1199.57 485.349H1226.55Z" stroke="black" stroke-opacity="0.08"/>
<path d="M1225.64 472.965H1200.49L1187.52 453.951L1200.49 434.938H1225.64L1238.61 453.951L1225.64 472.965Z" fill="white"/>
<path d="M1225.37 435.438L1238 453.951L1225.37 472.465H1200.75L1188.12 453.951L1200.75 435.438H1225.37Z" stroke="black" stroke-opacity="0.08"/>
<path d="M656.945 952.381H640.832L632.578 940.158L640.832 927.935H656.945L665.199 940.158L656.945 952.381Z" fill="white"/>
<path d="M656.679 928.435L664.595 940.157L656.679 951.881H641.098L633.181 940.157L641.098 928.435H656.679Z" stroke="black" stroke-opacity="0.08"/>
<path d="M713.933 935.064H686.422L672.666 914.693L686.422 893.981H713.933L727.688 914.693L713.933 935.064Z" fill="white"/>
<path d="M713.664 894.481L727.086 914.69L713.668 934.564H686.687L673.268 914.69L686.689 894.481H713.664Z" stroke="black" stroke-opacity="0.08"/>
<path d="M765.024 909.261H737.906L724.15 888.889L737.906 868.518H765.024L778.779 888.889L765.024 909.261Z" fill="white"/>
<path d="M764.758 869.018L778.176 888.889L764.759 908.761H738.171L724.753 888.889L738.172 869.018H764.758Z" stroke="black" stroke-opacity="0.08"/>
<path d="M816.509 883.798H788.998L775.242 863.426L788.998 843.055H816.509L830.264 863.426L816.509 883.798Z" fill="white"/>
<path d="M816.243 843.555L829.66 863.426L816.244 883.298H789.263L775.845 863.426L789.264 843.555H816.243Z" stroke="black" stroke-opacity="0.08"/>
<path d="M867.601 858.331H840.483L826.728 837.62L840.483 817.248H867.601L881.357 837.62L867.601 858.331Z" fill="white"/>
<path d="M867.335 817.748L880.755 837.621L867.333 857.831H840.751L827.329 837.621L840.749 817.748H867.335Z" stroke="black" stroke-opacity="0.08"/>
<path d="M919.086 832.528H891.575L877.819 812.156L891.575 791.784H919.086L932.841 812.156L919.086 832.528Z" fill="white"/>
<path d="M918.82 792.284L932.237 812.155L918.821 832.027H891.84L878.422 812.155L891.841 792.284H918.82Z" stroke="black" stroke-opacity="0.08"/>
<path d="M970.177 807.065H943.059L929.304 786.693L943.059 765.981H970.177L983.933 786.693L970.177 807.065Z" fill="white"/>
<path d="M969.909 766.481L983.331 786.69L969.912 806.564H943.324L929.905 786.69L943.327 766.481H969.909Z" stroke="black" stroke-opacity="0.08"/>
<path d="M1021.66 781.597H994.151L980.396 760.885L994.151 740.514H1021.66L1035.42 760.885L1021.66 781.597Z" fill="#014C8F"/>
<path d="M1021.4 741.014L1034.82 760.887L1021.39 781.097H994.419L980.997 760.887L994.417 741.014H1021.4Z" stroke="black" stroke-opacity="0.08"/>
<path d="M1072.75 755.792H1045.64L1031.88 735.421L1045.64 715.049H1072.75L1086.51 735.421L1072.75 755.792Z" fill="white"/>
<path d="M1072.49 715.549L1085.91 735.42L1072.49 755.292H1045.9L1032.48 735.42L1045.9 715.549H1072.49Z" stroke="black" stroke-opacity="0.08"/>
<path d="M1124.24 730.329H1096.73L1082.97 709.957L1096.73 689.246H1124.24L1137.99 709.957L1124.24 730.329Z" fill="white"/>
<path d="M1123.97 689.746L1137.39 709.955L1123.97 729.829H1096.99L1083.57 709.955L1097 689.746H1123.97Z" stroke="black" stroke-opacity="0.08"/>
<path d="M1174.55 703.508H1149L1136.42 684.154L1149 665.141H1174.55L1187.51 684.154L1174.55 703.508Z" fill="white"/>
<path d="M1174.28 665.641L1186.91 684.157L1174.28 703.008H1149.27L1137.02 684.156L1149.27 665.641H1174.28Z" stroke="black" stroke-opacity="0.08"/>
<path d="M1220.53 670.233H1205.59L1197.73 658.689L1205.59 647.145H1220.53L1228.39 658.689L1220.53 670.233Z" fill="white"/>
<path d="M1220.26 647.645L1227.78 658.688L1220.26 669.732H1205.86L1198.34 658.688L1205.86 647.645H1220.26Z" stroke="black" stroke-opacity="0.08"/>
<path d="M1276.34 599.608H1252.76L1240.96 581.952L1252.76 564.297H1276.34L1288.13 581.952L1276.34 599.608Z" fill="white"/>
<path d="M1276.07 564.797L1287.53 581.952L1276.07 599.108H1253.02L1241.57 581.952L1253.02 564.797H1276.07Z" stroke="black" stroke-opacity="0.08"/>
<path d="M1277.91 551.396H1250.79L1237.03 530.684L1250.79 510.312H1277.91L1291.66 530.684L1277.91 551.396Z" fill="white"/>
<path d="M1277.64 510.812L1291.06 530.686L1277.64 550.896H1251.06L1237.64 530.686L1251.06 510.812H1277.64Z" stroke="black" stroke-opacity="0.08"/>
<path d="M1270.44 488.586H1258.26L1252.36 479.758L1258.26 470.591H1270.44L1276.34 479.758L1270.44 488.586Z" fill="white"/>
<path d="M1270.17 471.091L1275.74 479.753L1270.17 488.086H1258.52L1252.96 479.753L1258.53 471.091H1270.17Z" stroke="black" stroke-opacity="0.08"/>
<path d="M1277.91 448.858H1250.79L1237.43 428.486L1250.79 408.114H1277.91L1291.66 428.486L1277.91 448.858Z" fill="white"/>
<path d="M1277.64 408.614L1291.06 428.485L1277.64 448.357H1251.06L1238.03 428.486L1251.06 408.614H1277.64Z" stroke="black" stroke-opacity="0.08"/>
<path d="M661.269 1009.76H636.509L624.325 991.427L636.509 973.093H661.269L673.452 991.427L661.269 1009.76Z" fill="white"/>
<path d="M661.001 973.593L672.851 991.427L661.001 1009.26H636.776L624.925 991.427L636.776 973.593H661.001Z" stroke="black" stroke-opacity="0.08"/>
<path d="M713.933 986.336H686.422L672.666 965.625L686.422 945.253H713.933L727.688 965.625L713.933 986.336Z" fill="white"/>
<path d="M713.667 945.753L727.086 965.626L713.664 985.836H686.689L673.268 965.626L686.688 945.753H713.667Z" stroke="black" stroke-opacity="0.08"/>
<path d="M765.024 960.529H737.906L724.15 940.157L737.906 919.785H765.024L778.779 940.157L765.024 960.529Z" fill="white"/>
<path d="M764.758 920.285L778.176 940.156L764.759 960.028H738.171L724.753 940.156L738.172 920.285H764.758Z" stroke="black" stroke-opacity="0.08"/>
<path d="M816.509 935.064H788.998L775.242 914.693L788.998 893.981H816.509L830.264 914.693L816.509 935.064Z" fill="white"/>
<path d="M816.24 894.481L829.662 914.69L816.244 934.564H789.263L775.844 914.69L789.266 894.481H816.24Z" stroke="black" stroke-opacity="0.08"/>
<path d="M867.601 909.261H840.483L826.728 888.889L840.483 868.518H867.601L881.357 888.889L867.601 909.261Z" fill="white"/>
<path d="M867.335 869.018L880.753 888.889L867.336 908.761H840.748L827.33 888.889L840.749 869.018H867.335Z" stroke="black" stroke-opacity="0.08"/>
<path d="M919.086 883.798H891.575L877.819 863.426L891.575 843.055H919.086L932.841 863.426L919.086 883.798Z" fill="white"/>
<path d="M918.82 843.555L932.237 863.426L918.821 883.298H891.84L878.422 863.426L891.841 843.555H918.82Z" stroke="black" stroke-opacity="0.08"/>
<path d="M970.177 858.331H943.059L929.304 837.62L943.059 817.248H970.177L983.933 837.62L970.177 858.331Z" fill="white"/>
<path d="M969.911 817.748L983.331 837.621L969.909 857.831H943.327L929.905 837.621L943.325 817.748H969.911Z" stroke="black" stroke-opacity="0.08"/>
<path d="M1021.66 832.528H994.151L980.396 812.156L994.151 791.784H1021.66L1035.42 812.156L1021.66 832.528Z" fill="white"/>
<path d="M1021.4 792.284L1034.81 812.155L1021.4 832.027H994.416L980.998 812.155L994.417 792.284H1021.4Z" stroke="black" stroke-opacity="0.08"/>
<path d="M1072.75 807.065H1045.64L1031.88 786.693L1045.64 765.981H1072.75L1086.51 786.693L1072.75 807.065Z" fill="white"/>
<path d="M1072.49 766.481L1085.91 786.69L1072.49 806.564H1045.9L1032.48 786.69L1045.9 766.481H1072.49Z" stroke="black" stroke-opacity="0.08"/>
<path d="M1123.85 781.259H1097.12L1083.76 760.888L1097.12 740.855H1123.85L1137.6 760.888L1123.85 781.259Z" fill="white"/>
<path d="M1123.58 741.355L1137 760.89L1123.58 780.76H1097.39L1084.36 760.89L1097.39 741.355H1123.58Z" stroke="black" stroke-opacity="0.08"/>
<path d="M1322.32 515.066H1308.96L1302.67 505.219L1308.96 495.373H1322.32L1329 505.219L1322.32 515.066Z" fill="white"/>
<path d="M1322.05 495.873L1328.39 505.219L1322.05 514.565H1309.23L1303.26 505.219L1309.23 495.873H1322.05Z" stroke="black" stroke-opacity="0.08"/>
<path d="M713.933 1037.26H686.422L672.666 1016.89L686.422 996.521H713.933L727.688 1016.89L713.933 1037.26Z" fill="white"/>
<path d="M713.667 997.021L727.084 1016.89L713.668 1036.76H686.687L673.269 1016.89L686.688 997.021H713.667Z" stroke="black" stroke-opacity="0.08"/>
<path d="M765.024 1011.8H737.906L724.15 991.428L737.906 970.717H765.024L778.779 991.428L765.024 1011.8Z" fill="white"/>
<path d="M764.756 971.217L778.177 991.426L764.759 1011.3H738.171L724.752 991.426L738.174 971.217H764.756Z" stroke="black" stroke-opacity="0.08"/>
<path d="M816.509 986.336H788.998L775.242 965.625L788.998 945.253H816.509L830.264 965.625L816.509 986.336Z" fill="white"/>
<path d="M816.243 945.753L829.662 965.626L816.24 985.836H789.266L775.844 965.626L789.264 945.753H816.243Z" stroke="black" stroke-opacity="0.08"/>
<path d="M867.601 960.529H840.483L826.728 940.157L840.483 919.785H867.601L881.357 940.157L867.601 960.529Z" fill="white"/>
<path d="M867.335 920.285L880.753 940.156L867.336 960.028H840.748L827.33 940.156L840.749 920.285H867.335Z" stroke="black" stroke-opacity="0.08"/>
<path d="M919.086 935.064H891.575L877.819 914.693L891.575 893.981H919.086L932.841 914.693L919.086 935.064Z" fill="white"/>
<path d="M918.817 894.481L932.239 914.69L918.821 934.564H891.84L878.421 914.69L891.843 894.481H918.817Z" stroke="black" stroke-opacity="0.08"/>
<path d="M970.177 909.261H943.059L929.304 888.889L943.059 868.518H970.177L983.933 888.889L970.177 909.261Z" fill="white"/>
<path d="M969.911 869.018L983.329 888.889L969.912 908.761H943.324L929.906 888.889L943.325 869.018H969.911Z" stroke="black" stroke-opacity="0.08"/>
<path d="M1021.66 883.798H994.151L980.396 863.426L994.151 843.055H1021.66L1035.42 863.426L1021.66 883.798Z" fill="white"/>
<path d="M1021.4 843.555L1034.81 863.426L1021.4 883.298H994.416L980.998 863.426L994.417 843.555H1021.4Z" stroke="black" stroke-opacity="0.08"/>
<path d="M1072.75 858.331H1045.64L1031.88 837.62L1045.64 817.248H1072.75L1086.51 837.62L1072.75 858.331Z" fill="white"/>
<path d="M1072.49 817.748L1085.91 837.621L1072.49 857.831H1045.9L1032.48 837.621L1045.9 817.748H1072.49Z" stroke="black" stroke-opacity="0.08"/>
<path d="M1123.85 832.527H1097.12L1083.37 812.155L1097.12 792.123H1123.85L1137.6 812.155L1123.85 832.527Z" fill="white"/>
<path d="M1123.58 792.623L1137 812.157L1123.58 832.027H1097.39L1083.97 812.157L1097.39 792.623H1123.58Z" stroke="black" stroke-opacity="0.08"/>
<path d="M713.539 1088.19H686.814L673.451 1068.16L686.814 1048.13H713.539L726.901 1068.16L713.539 1088.19Z" fill="white"/>
<path d="M713.271 1048.63L726.3 1068.16L713.271 1087.69H687.081L674.052 1068.16L687.081 1048.63H713.271Z" stroke="black" stroke-opacity="0.08"/>
<path d="M765.024 1063.07H737.906L724.15 1042.36L737.906 1021.98H765.024L778.779 1042.36L765.024 1063.07Z" fill="white"/>
<path d="M764.758 1022.48L778.177 1042.36L764.756 1062.57H738.174L724.752 1042.36L738.172 1022.48H764.758Z" stroke="black" stroke-opacity="0.08"/>
<path d="M816.509 1037.26H788.998L775.242 1016.89L788.998 996.521H816.509L830.264 1016.89L816.509 1037.26Z" fill="white"/>
<path d="M816.243 997.021L829.66 1016.89L816.244 1036.76H789.263L775.845 1016.89L789.264 997.021H816.243Z" stroke="black" stroke-opacity="0.08"/>
<path d="M867.601 1011.8H840.483L826.728 991.428L840.483 970.717H867.601L881.357 991.428L867.601 1011.8Z" fill="white"/>
<path d="M867.333 971.217L880.755 991.426L867.336 1011.3H840.748L827.329 991.426L840.751 971.217H867.333Z" stroke="black" stroke-opacity="0.08"/>
<path d="M919.086 986.336H891.575L877.819 965.625L891.575 945.253H919.086L932.841 965.625L919.086 986.336Z" fill="white"/>
<path d="M918.82 945.753L932.239 965.626L918.817 985.836H891.843L878.421 965.626L891.841 945.753H918.82Z" stroke="black" stroke-opacity="0.08"/>
<path d="M970.177 960.529H943.059L929.304 940.157L943.059 919.785H970.177L983.933 940.157L970.177 960.529Z" fill="white"/>
<path d="M969.911 920.285L983.329 940.156L969.912 960.028H943.324L929.906 940.156L943.325 920.285H969.911Z" stroke="black" stroke-opacity="0.08"/>
<path d="M1021.66 935.064H994.151L980.396 914.693L994.151 893.981H1021.66L1035.42 914.693L1021.66 935.064Z" fill="#9747FF"/>
<path d="M1021.39 894.481L1034.82 914.69L1021.4 934.564H994.416L980.997 914.69L994.419 894.481H1021.39Z" stroke="black" stroke-opacity="0.08"/>
<path d="M1072.75 909.261H1045.64L1031.88 888.889L1045.64 868.518H1072.75L1086.51 888.889L1072.75 909.261Z" fill="white"/>
<path d="M1072.49 869.018L1085.91 888.889L1072.49 908.761H1045.9L1032.48 888.889L1045.9 869.018H1072.49Z" stroke="black" stroke-opacity="0.08"/>
<path d="M1124.24 883.798H1096.73L1082.97 863.426L1096.73 843.055H1124.24L1137.99 863.426L1124.24 883.798Z" fill="white"/>
<path d="M1123.97 843.555L1137.39 863.426L1123.97 883.298H1096.99L1083.58 863.426L1096.99 843.555H1123.97Z" stroke="black" stroke-opacity="0.08"/>
<path d="M710.789 1135.39H689.173L678.562 1119.09L689.173 1103.13H710.789L721.793 1119.09L710.789 1135.39Z" fill="white"/>
<path d="M710.525 1103.63L721.188 1119.09L710.523 1134.89H689.443L679.159 1119.09L689.44 1103.63H710.525Z" stroke="black" stroke-opacity="0.08"/>
<path d="M765.024 1114H737.906L724.15 1093.63L737.906 1073.25H765.024L778.779 1093.63L765.024 1114Z" fill="white"/>
<path d="M764.758 1073.75L778.176 1093.63L764.759 1113.5H738.171L724.753 1093.63L738.172 1073.75H764.758Z" stroke="black" stroke-opacity="0.08"/>
<path d="M816.509 1088.53H788.998L775.242 1068.16L788.998 1047.45H816.509L830.264 1068.16L816.509 1088.53Z" fill="white"/>
<path d="M816.24 1047.95L829.662 1068.16L816.244 1088.03H789.263L775.844 1068.16L789.266 1047.95H816.24Z" stroke="black" stroke-opacity="0.08"/>
<path d="M867.601 1063.07H840.483L826.728 1042.36L840.483 1021.98H867.601L881.357 1042.36L867.601 1063.07Z" fill="white"/>
<path d="M867.335 1022.48L880.755 1042.36L867.333 1062.57H840.751L827.329 1042.36L840.749 1022.48H867.335Z" stroke="black" stroke-opacity="0.08"/>
<path d="M919.086 1037.26H891.575L877.819 1016.89L891.575 996.521H919.086L932.841 1016.89L919.086 1037.26Z" fill="white"/>
<path d="M918.82 997.021L932.237 1016.89L918.821 1036.76H891.84L878.422 1016.89L891.841 997.021H918.82Z" stroke="black" stroke-opacity="0.08"/>
<path d="M970.177 1011.8H943.059L929.304 991.428L943.059 970.717H970.177L983.933 991.428L970.177 1011.8Z" fill="white"/>
<path d="M969.909 971.217L983.331 991.426L969.912 1011.3H943.324L929.905 991.426L943.327 971.217H969.909Z" stroke="black" stroke-opacity="0.08"/>
<path d="M1021.66 986.336H994.151L980.396 965.625L994.151 945.253H1021.66L1035.42 965.625L1021.66 986.336Z" fill="white"/>
<path d="M1021.4 945.753L1034.82 965.626L1021.39 985.836H994.419L980.997 965.626L994.417 945.753H1021.4Z" stroke="black" stroke-opacity="0.08"/>
<path d="M1072.75 960.529H1045.64L1031.88 940.157L1045.64 919.785H1072.75L1086.51 940.157L1072.75 960.529Z" fill="white"/>
<path d="M1072.49 920.285L1085.91 940.156L1072.49 960.028H1045.9L1032.48 940.156L1045.9 920.285H1072.49Z" stroke="black" stroke-opacity="0.08"/>
<path d="M1124.24 934.724H1097.12L1083.37 914.692L1097.12 894.32H1124.24L1137.6 914.692L1124.24 934.724Z" fill="white"/>
<path d="M1123.97 894.82L1137 914.69L1123.97 934.225H1097.39L1083.97 914.689L1097.39 894.82H1123.97Z" stroke="black" stroke-opacity="0.08"/>
<path d="M704.893 1177.83H695.068L690.352 1170.36L695.068 1163.23H704.893L710.002 1170.36L704.893 1177.83Z" fill="white"/>
<path d="M704.636 1163.73L709.392 1170.36L704.63 1177.33H695.343L690.946 1170.36L695.336 1163.73H704.636Z" stroke="black" stroke-opacity="0.08"/>
<path d="M765.024 1165.26H737.906L724.15 1144.89L737.906 1124.18H765.024L778.779 1144.89L765.024 1165.26Z" fill="white"/>
<path d="M764.756 1124.68L778.177 1144.89L764.759 1164.76H738.171L724.752 1144.89L738.174 1124.68H764.756Z" stroke="black" stroke-opacity="0.08"/>
<path d="M816.509 1139.8H788.998L775.242 1119.09L788.998 1098.72H816.509L830.264 1119.09L816.509 1139.8Z" fill="white"/>
<path d="M816.243 1099.22L829.662 1119.09L816.24 1139.3H789.266L775.844 1119.09L789.264 1099.22H816.243Z" stroke="black" stroke-opacity="0.08"/>
<path d="M867.601 1114H840.483L826.728 1093.63L840.483 1073.25H867.601L881.357 1093.63L867.601 1114Z" fill="white"/>
<path d="M867.335 1073.75L880.753 1093.63L867.336 1113.5H840.748L827.33 1093.63L840.749 1073.75H867.335Z" stroke="black" stroke-opacity="0.08"/>
<path d="M919.086 1088.53H891.575L877.819 1068.16L891.575 1047.45H919.086L932.841 1068.16L919.086 1088.53Z" fill="white"/>
<path d="M918.817 1047.95L932.239 1068.16L918.821 1088.03H891.84L878.421 1068.16L891.843 1047.95H918.817Z" stroke="black" stroke-opacity="0.08"/>
<path d="M970.177 1063.07H943.059L929.304 1042.36L943.059 1021.98H970.177L983.933 1042.36L970.177 1063.07Z" fill="white"/>
<path d="M969.911 1022.48L983.331 1042.36L969.909 1062.57H943.327L929.905 1042.36L943.325 1022.48H969.911Z" stroke="black" stroke-opacity="0.08"/>
<path d="M1021.66 1037.26H994.151L980.396 1016.89L994.151 996.521H1021.66L1035.42 1016.89L1021.66 1037.26Z" fill="white"/>
<path d="M1021.4 997.021L1034.81 1016.89L1021.4 1036.76H994.416L980.998 1016.89L994.417 997.021H1021.4Z" stroke="black" stroke-opacity="0.08"/>
<path d="M1070.4 1007.72H1048.39L1037.38 991.427L1048.39 974.79H1070.4L1081.01 991.427L1070.4 1007.72Z" fill="white"/>
<path d="M1070.12 975.29L1080.41 991.424L1070.13 1007.22H1048.65L1037.98 991.424L1048.66 975.29H1070.12Z" stroke="black" stroke-opacity="0.08"/>
<path d="M1114.41 971.394H1106.55L1102.62 965.621L1106.55 959.85H1114.41L1118.34 965.621L1114.41 971.394Z" fill="white"/>
<path d="M1114.15 960.35L1117.74 965.621L1114.15 970.894H1106.82L1103.23 965.621L1106.82 960.35H1114.15Z" stroke="black" stroke-opacity="0.08"/>
<path d="M1275.94 906.207H1252.76L1240.96 888.891L1252.76 871.575H1275.94L1287.73 888.891L1275.94 906.207Z" fill="white"/>
<path d="M1275.68 872.075L1287.13 888.891L1275.68 905.707H1253.02L1241.57 888.891L1253.02 872.075H1275.68Z" stroke="black" stroke-opacity="0.08"/>
<path d="M765.024 1216.54H737.906L724.15 1195.82L737.906 1175.45H765.024L778.779 1195.82L765.024 1216.54Z" fill="white"/>
<path d="M764.758 1175.95L778.177 1195.83L764.756 1216.04H738.174L724.752 1195.83L738.172 1175.95H764.758Z" stroke="black" stroke-opacity="0.08"/>
<path d="M816.509 1190.73H788.998L775.242 1170.36L788.998 1149.99H816.509L830.264 1170.36L816.509 1190.73Z" fill="white"/>
<path d="M816.243 1150.49L829.66 1170.36L816.244 1190.23H789.263L775.845 1170.36L789.264 1150.49H816.243Z" stroke="black" stroke-opacity="0.08"/>
<path d="M867.601 1165.26H840.483L826.728 1144.89L840.483 1124.18H867.601L881.357 1144.89L867.601 1165.26Z" fill="#9747FF"/>
<path d="M867.333 1124.68L880.755 1144.89L867.336 1164.76H840.748L827.329 1144.89L840.751 1124.68H867.333Z" stroke="black" stroke-opacity="0.08"/>
<path d="M919.086 1139.8H891.575L877.819 1119.09L891.575 1098.72H919.086L932.841 1119.09L919.086 1139.8Z" fill="white"/>
<path d="M918.82 1099.22L932.239 1119.09L918.817 1139.3H891.843L878.421 1119.09L891.841 1099.22H918.82Z" stroke="black" stroke-opacity="0.08"/>
<path d="M970.177 1114H943.059L929.304 1093.63L943.059 1073.25H970.177L983.933 1093.63L970.177 1114Z" fill="white"/>
<path d="M969.911 1073.75L983.329 1093.63L969.912 1113.5H943.324L929.906 1093.63L943.325 1073.75H969.911Z" stroke="black" stroke-opacity="0.08"/>
<path d="M1021.66 1088.53H994.151L980.396 1068.16L994.151 1047.45H1021.66L1035.42 1068.16L1021.66 1088.53Z" fill="white"/>
<path d="M1021.39 1047.95L1034.82 1068.16L1021.4 1088.03H994.416L980.997 1068.16L994.419 1047.95H1021.39Z" stroke="black" stroke-opacity="0.08"/>
<path d="M1061.36 1045.75H1057.03L1055.07 1042.36L1057.03 1039.3H1061.36L1063.32 1042.36L1061.36 1045.75Z" fill="white"/>
<path d="M1061.08 1039.8L1062.74 1042.37L1061.07 1045.25H1057.32L1055.65 1042.37L1057.31 1039.8H1061.08Z" stroke="black" stroke-opacity="0.08"/>
<path d="M1226.82 986.336H1199.31L1185.55 965.625L1199.31 945.253H1226.82L1240.57 965.625L1226.82 986.336Z" fill="white"/>
<path d="M1226.55 945.753L1239.97 965.626L1226.55 985.836H1199.57L1186.15 965.626L1199.57 945.753H1226.55Z" stroke="black" stroke-opacity="0.08"/>
<path d="M1277.91 960.529H1250.79L1237.03 940.157L1250.79 919.785H1277.91L1291.66 940.157L1277.91 960.529Z" fill="white"/>
<path d="M1277.64 920.285L1291.06 940.156L1277.64 960.028H1251.05L1237.64 940.156L1251.06 920.285H1277.64Z" stroke="black" stroke-opacity="0.08"/>
<path d="M816.509 1242H788.998L775.242 1221.63L788.998 1201.26H816.509L830.264 1221.63L816.509 1242Z" fill="white"/>
<path d="M816.243 1201.76L829.66 1221.63L816.244 1241.5H789.263L775.845 1221.63L789.264 1201.76H816.243Z" stroke="black" stroke-opacity="0.08"/>
<path d="M867.601 1216.54H840.483L826.728 1195.82L840.483 1175.45H867.601L881.357 1195.82L867.601 1216.54Z" fill="white"/>
<path d="M867.335 1175.95L880.755 1195.83L867.333 1216.04H840.751L827.329 1195.83L840.749 1175.95H867.335Z" stroke="black" stroke-opacity="0.08"/>
<path d="M919.086 1190.73H891.575L877.819 1170.36L891.575 1149.99H919.086L932.841 1170.36L919.086 1190.73Z" fill="white"/>
<path d="M918.82 1150.49L932.237 1170.36L918.821 1190.23H891.84L878.422 1170.36L891.841 1150.49H918.82Z" stroke="black" stroke-opacity="0.08"/>
<path d="M970.177 1165.26H943.059L929.304 1144.89L943.059 1124.18H970.177L983.933 1144.89L970.177 1165.26Z" fill="white"/>
<path d="M969.909 1124.68L983.331 1144.89L969.912 1164.76H943.324L929.905 1144.89L943.327 1124.68H969.909Z" stroke="black" stroke-opacity="0.08"/>
<path d="M1010.27 1122.83H1005.55L1002.8 1119.09L1005.55 1115.36H1010.27L1013.02 1119.09L1010.27 1122.83Z" fill="white"/>
<path d="M1010.01 1115.86L1012.4 1119.09L1010.01 1122.33H1005.8L1003.42 1119.09L1005.8 1115.86H1010.01Z" stroke="black" stroke-opacity="0.08"/>
<path d="M1167.08 1050.17H1156.47L1151.36 1042.36L1156.47 1034.89H1167.08L1172.19 1042.36L1167.08 1050.17Z" fill="white"/>
<path d="M1166.81 1035.39L1171.58 1042.36L1166.81 1049.67H1156.74L1151.96 1042.36L1156.73 1035.39H1166.81Z" stroke="black" stroke-opacity="0.08"/>
<path d="M1226.82 1037.26H1199.31L1185.55 1016.89L1199.31 996.521H1226.82L1240.57 1016.89L1226.82 1037.26Z" fill="white"/>
<path d="M1226.55 997.021L1239.97 1016.89L1226.55 1036.76H1199.57L1186.15 1016.89L1199.57 997.021H1226.55Z" stroke="black" stroke-opacity="0.08"/>
<path d="M1277.12 1010.44H1251.58L1239 991.426L1251.58 972.073H1277.12L1290.09 991.426L1277.12 1010.44Z" fill="white"/>
<path d="M1276.86 972.573L1289.49 991.423L1276.86 1009.94H1251.85L1239.6 991.424L1251.85 972.573H1276.86Z" stroke="black" stroke-opacity="0.08"/>
<path d="M918.693 1241.32H891.968L878.605 1221.63L891.968 1201.6H918.693L932.055 1221.63L918.693 1241.32Z" fill="white"/>
<path d="M918.426 1202.1L931.452 1221.62L918.429 1240.82H892.232L879.208 1221.62L892.235 1202.1H918.426Z" stroke="black" stroke-opacity="0.08"/>
<path d="M959.173 1199.56H954.064L951.706 1195.82L954.064 1192.43H959.173L961.531 1195.82L959.173 1199.56Z" fill="white"/>
<path d="M958.912 1192.93L960.932 1195.84L958.898 1199.06H954.34L952.306 1195.84L954.325 1192.93H958.912Z" stroke="black" stroke-opacity="0.08"/>
<path d="M1166.68 1101.1H1156.86L1151.75 1093.63L1156.86 1086.16H1166.68L1171.79 1093.63L1166.68 1101.1Z" fill="white"/>
<path d="M1166.42 1086.66L1171.19 1093.63L1166.42 1100.6H1157.12L1152.36 1093.63L1157.12 1086.66H1166.42Z" stroke="black" stroke-opacity="0.08"/>
<path d="M1226.82 1088.53H1199.31L1185.55 1068.16L1199.31 1047.45H1226.82L1240.57 1068.16L1226.82 1088.53Z" fill="white"/>
<path d="M1226.55 1047.95L1239.97 1068.16L1226.55 1088.03H1199.57L1186.15 1068.16L1199.57 1047.95H1226.55Z" stroke="black" stroke-opacity="0.08"/>
<path d="M1272.8 1055.26H1255.9L1247.25 1042.36L1255.9 1029.79H1272.8L1281.45 1042.36L1272.8 1055.26Z" fill="white"/>
<path d="M1272.54 1030.29L1280.84 1042.36L1272.53 1054.76H1256.17L1247.86 1042.36L1256.16 1030.29H1272.54Z" stroke="black" stroke-opacity="0.08"/>
<path d="M1219.35 1128.26H1207.17L1200.88 1119.09L1207.17 1110.26H1219.35L1225.24 1119.09L1219.35 1128.26Z" fill="white"/>
<path d="M1219.08 1110.76L1224.65 1119.1L1219.08 1127.76H1207.43L1201.49 1119.1L1207.42 1110.76H1219.08Z" stroke="black" stroke-opacity="0.08"/>
</g>
<defs>
<filter id="filter0_d_43_2591" x="0" y="0" width="1409" height="1422" filterUnits="userSpaceOnUse" color-interpolation-filters="sRGB">
<feFlood flood-opacity="0" result="BackgroundImageFix"/>
<feColorMatrix in="SourceAlpha" type="matrix" values="0 0 0 0 0 0 0 0 0 0 0 0 0 0 0 0 0 0 127 0" result="hardAlpha"/>
<feOffset dy="100"/>
<feGaussianBlur stdDeviation="40"/>
<feComposite in2="hardAlpha" operator="out"/>
<feColorMatrix type="matrix" values="0 0 0 0 0.252036 0 0 0 0 0.19566 0 0 0 0 0.670833 0 0 0 0.15 0"/>
<feBlend mode="normal" in2="BackgroundImageFix" result="effect1_dropShadow_43_2591"/>
<feBlend mode="normal" in="SourceGraphic" in2="effect1_dropShadow_43_2591" result="shape"/>
</filter>
</defs>
</svg>
